<?xml version="1.0" standalone="no"?>
<!DOCTYPE svg PUBLIC "-//W3C//DTD SVG 1.1//EN" "http://www.w3.org/Graphics/SVG/1.1/DTD/svg11.dtd" >
<svg xmlns="http://www.w3.org/2000/svg">
<metadata>Generated by IcoMoon</metadata>
<defs>
<font id="icomoon" horiz-adv-x="1024">
<font-face units-per-em="1024" ascent="960" descent="-64" />
<missing-glyph horiz-adv-x="1024" />
<glyph unicode="&#x20;" horiz-adv-x="512" d="" />
<glyph unicode="&#xe900;" glyph-name="icon_copy_30px" d="M981.367-63.898h-713.25c-0.030 0-0.066 0-0.103 0-23.489 0-42.53 19.041-42.53 42.53 0 0.036 0 0.072 0 0.108v-0.006 162.372h-182.852c-0.020 0-0.044 0-0.068 0-23.508 0-42.564 19.057-42.564 42.564 0 0.036 0 0.072 0 0.108v-0.006 733.662c0 0.041 0 0.089 0 0.137 0 23.489 19.041 42.53 42.53 42.53 0.036 0 0.072 0 0.108 0h713.381c23.474-0.019 42.496-19.053 42.496-42.53 0-0.048 0-0.096 0-0.144v0.007-162.406h182.852c23.549-0.019 42.633-19.114 42.633-42.667v0-733.662c0-0.020 0-0.044 0-0.068 0-23.489-19.041-42.53-42.53-42.53-0.036 0-0.072 0-0.108 0h0.006zM713.045 874.769h-627.712v-648.533h140.151v486.127c0 0.041 0 0.089 0 0.137 0 23.489 19.041 42.53 42.53 42.53 0.036 0 0.072 0 0.108 0h444.922zM938.667 669.525h-628.053v-648.533h628.053zM498.688 502.443h257.331c23.564 0 42.667-19.103 42.667-42.667s-19.103-42.667-42.667-42.667v0h-257.331c-23.564 0-42.667 19.103-42.667 42.667s19.103 42.667 42.667 42.667v0zM498.688 273.476h257.331c23.564 0 42.667-19.103 42.667-42.667s-19.103-42.667-42.667-42.667v0h-257.331c-23.564 0-42.667 19.103-42.667 42.667s19.103 42.667 42.667 42.667v0z" />
<glyph unicode="&#xe901;" glyph-name="icon_add_30px" d="M874.052 810.052c92.657-92.657 149.967-220.662 149.967-362.052 0-282.78-229.239-512.019-512.019-512.019-141.39 0-269.395 57.31-362.052 149.967v0c-92.657 92.657-149.967 220.662-149.967 362.052 0 282.78 229.239 512.019 512.019 512.019 141.39 0 269.395-57.31 362.052-149.967v0zM82.739 448c0-237.074 192.187-429.261 429.261-429.261s429.261 192.187 429.261 429.261c0 237.074-192.187 429.261-429.261 429.261v0c-236.957-0.291-428.97-192.304-429.261-429.233v-0.028zM467.627 255.215v151.859h-151.893c-23.564 0-42.667 19.103-42.667 42.667v0c0 23.564 19.103 42.667 42.667 42.667v0h151.893v151.859c0 0.010 0 0.022 0 0.034 0 23.545 19.087 42.633 42.633 42.633v0c23.564 0 42.667-19.103 42.667-42.667v0-151.859h151.859c23.564 0 42.667-19.103 42.667-42.667v0c0-23.564-19.103-42.667-42.667-42.667v0h-151.825v-151.859c0-23.564-19.103-42.667-42.667-42.667v0c-0.010 0-0.022 0-0.034 0-23.545 0-42.633 19.087-42.633 42.633 0 0.012 0 0.024 0 0.036v-0.002z" />
<glyph unicode="&#xe902;" glyph-name="icon_airplane_30px" d="M984.986 918.596c-24.764 25.551-59.401 41.41-97.741 41.41s-72.976-15.859-97.707-41.374l-0.034-0.035-146.773-146.773-360.789 124.177c-3.485 1.072-7.491 1.689-11.641 1.689-9.861 0-18.908-3.485-25.977-9.29l0.071 0.057-94.037-94.106c-7.61-4.447-12.641-12.577-12.641-21.881 0-2.945 0.504-5.773 1.431-8.401l-0.054 0.177c0.23-11.104 6.133-20.781 14.919-26.273l0.133-0.078 266.923-184.32-75.093-75.298-97.758 18.807c-2.734 0.896-5.881 1.413-9.148 1.413-10.138 0-19.114-4.977-24.616-12.622l-0.062-0.090-94.106-94.242c-5.719-6.045-9.235-14.225-9.235-23.227 0-3.816 0.632-7.484 1.796-10.905l-0.070 0.238c3.17-10.954 9.821-20.051 18.654-26.249l0.154-0.102 176.708-86.596 86.46-176.947c3.97-10.955 14.225-18.667 26.3-18.807h7.526c0.279-0.008 0.606-0.013 0.935-0.013 10.062 0 19.107 4.354 25.355 11.281l0.027 0.030 93.969 94.208c7.032 8.863 11.281 20.21 11.281 32.55 0 0.473-0.006 0.944-0.019 1.414l0.001-0.069-18.807 94.106 75.093 75.298 184.32-267.298c6.191-8.232 15.501-13.831 26.143-15.037l0.174-0.016c0.338-0.010 0.735-0.015 1.134-0.015 11.181 0 21.358 4.301 28.966 11.339l-0.028-0.026 94.003 94.106c6.799 5.545 11.105 13.921 11.105 23.304 0 5.218-1.332 10.125-3.675 14.399l0.078-0.156-124.041 361.404 146.773 146.773c26.342 24.395 42.777 59.163 42.777 97.77 0 36.844-14.968 70.192-39.155 94.295l-0.004 0.004zM778.24 519.68l105.267-304.947-45.124-45.193-165.444 240.913zM462.438 286.276l18.842-98.031-41.37-41.404-71.441 139.298c-3.302 7.821-10.25 13.528-18.656 15.030l-0.151 0.022-139.093 71.68 41.37 41.404 97.758-18.807c2.734-0.896 5.881-1.413 9.148-1.413 10.138 0 19.114 4.977 24.616 12.622l0.062 0.090 458.581 459.127c11.313 10.5 26.519 16.942 43.23 16.942s31.917-6.442 43.27-16.979l-0.040 0.037c10.487-11.343 16.919-26.57 16.919-43.298s-6.432-31.955-16.958-43.341l0.039 0.043c-11.264-11.298-443.733-448-454.895-459.298-7.081-8.056-11.402-18.69-11.402-30.332 0-1.254 0.050-2.496 0.148-3.724l-0.010 0.162zM233.062 771.755l45.124 45.193 304.503-105.404-109.022-109.227zM206.78 203.401c0.009 0.298 0.015 0.647 0.015 0.998 0 10.047-4.341 19.080-11.249 25.326l-0.030 0.026c-6.629 6.961-15.968 11.29-26.317 11.29s-19.688-4.329-26.303-11.275l-0.014-0.015-131.618-131.857c-6.955-6.645-11.279-15.993-11.279-26.351s4.324-19.706 11.265-26.338l0.014-0.013c6.857-6.605 16.053-10.823 26.227-11.295l0.090-0.003c10.264 0.475 19.46 4.693 26.33 11.31l-0.013-0.012 131.584 131.755c6.626 6.894 10.848 16.141 11.295 26.368l0.003 0.085zM244.361 131.755l-131.584-131.755c-6.955-6.645-11.279-15.993-11.279-26.351s4.324-19.706 11.265-26.338l0.014-0.013c6.857-6.605 16.053-10.823 26.227-11.295l0.090-0.003c0.279-0.008 0.606-0.013 0.935-0.013 10.062 0 19.107 4.354 25.355 11.281l0.027 0.030 131.584 131.755c6.75 6.741 10.925 16.058 10.925 26.351 0 20.568-16.674 37.242-37.242 37.242-10.276 0-19.579-4.162-26.317-10.891v0z" />
<glyph unicode="&#xe903;" glyph-name="icon_alarm_30px" d="M972.766 649.387c-7.642-7.922-18.35-12.842-30.208-12.842s-22.566 4.92-30.196 12.829l-0.012 0.013-189.406 195.243c-7.758 8.061-12.536 19.037-12.536 31.13s4.778 23.069 12.549 31.144l-0.014-0.014c31.522 32.824 75.775 53.219 124.791 53.219s93.269-20.394 124.736-53.16l0.056-0.059c31.858-33.486 51.457-78.893 51.457-128.877 0-49.862-19.503-95.169-51.297-128.709l0.079 0.084zM912.282 844.288c-16.509 16.929-39.541 27.428-65.026 27.428-9.362 0-18.393-1.417-26.89-4.048l0.643 0.172 113.937-117.453c2.514 8.191 3.961 17.606 3.961 27.359 0 25.818-10.143 49.267-26.662 66.579l0.036-0.038zM942.797 380.075c0.026-1.794 0.042-3.912 0.042-6.034 0-239.391-192.007-433.936-430.42-438.035l-0.385-0.005c-238.827 4.066-430.873 198.627-430.873 438.042 0 2.133 0.015 4.263 0.046 6.389l-0.004-0.322c-0.027 1.814-0.042 3.956-0.042 6.101 0 239.415 192.046 433.975 430.492 438.037l0.382 0.005c238.902-4.067 431.008-198.688 431.008-438.178 0-2.097-0.015-4.191-0.044-6.282l0.004 0.317zM512.034 736.119c-191.523-3.17-345.565-159.172-345.565-351.153 0-1.708 0.012-3.413 0.037-5.116l-0.003 0.258c-0.021-1.446-0.034-3.152-0.034-4.861 0-192.015 154.022-348.056 345.26-351.316l0.306-0.004c191.61 3.323 345.665 159.432 345.665 351.524 0 1.638-0.011 3.273-0.034 4.905l0.003-0.248c0.020 1.404 0.032 3.062 0.032 4.722 0 192.043-154.083 348.099-345.367 351.285l-0.299 0.004zM672.768 336.179h-160.427c-23.618 0.324-42.639 19.545-42.639 43.209 0 0.265 0.002 0.53 0.007 0.794l-0.001-0.040v248.422c0 23.564 19.103 42.667 42.667 42.667s42.667-19.103 42.667-42.667v0-204.459h117.692c23.756-0.459 42.838-19.826 42.838-43.649 0-0.111 0-0.221-0.001-0.332v0.017c0.005-0.234 0.007-0.51 0.007-0.787 0-23.712-19.099-42.964-42.753-43.21h-0.023zM111.753 649.387c-7.666-7.87-18.367-12.752-30.208-12.752s-22.542 4.882-30.199 12.743l-0.009 0.009c-31.778 33.435-51.325 78.756-51.325 128.643 0 49.991 19.629 95.398 51.601 128.933l-0.071-0.075c31.522 32.824 75.775 53.219 124.791 53.219s93.269-20.394 124.736-53.16l0.056-0.059c7.758-8.061 12.536-19.037 12.536-31.13s-4.778-23.069-12.549-31.144l0.014 0.014zM111.753 844.629c-16.507-17.151-26.674-40.506-26.674-66.236 0-9.893 1.503-19.435 4.294-28.41l-0.181 0.677 113.903 117.18c-7.883 2.468-16.948 3.889-26.345 3.889-25.44 0-48.446-10.42-64.984-27.224l-0.012-0.012z" />
<glyph unicode="&#xe904;" glyph-name="icon_analyse_30px" d="M981.367 141.858h-426.667v-120.525h62.259c23.564 0 42.667-19.103 42.667-42.667s-19.103-42.667-42.667-42.667v0h-209.954c-23.564 0-42.667 19.103-42.667 42.667s19.103 42.667 42.667 42.667v0h62.259v120.525h-426.633c-0.030 0-0.066 0-0.103 0-23.489 0-42.53 19.041-42.53 42.53 0 0.036 0 0.072 0 0.108v-0.006 732.877c0 0.030 0 0.066 0 0.103 0 23.489 19.041 42.53 42.53 42.53 0.036 0 0.072 0 0.108 0h938.661c23.528-0.077 42.585-19.11 42.701-42.621v-732.888c0-0.030 0-0.066 0-0.103 0-23.489-19.041-42.53-42.53-42.53-0.036 0-0.072 0-0.108 0h0.006zM938.325 874.667h-852.992v-647.543h852.992zM482.031 785.067c112.626-0.039 203.913-91.349 203.913-203.981 0-41.239-12.238-79.619-33.28-111.708l0.477 0.775 80.452-80.452c7.471-7.682 12.078-18.182 12.078-29.759 0-23.583-19.118-42.701-42.701-42.701-11.577 0-22.077 4.607-29.769 12.087l-80.442 80.442c-31.209-20.375-69.417-32.495-110.457-32.495-112.655 0-203.981 91.325-203.981 203.981 0 112.56 91.171 203.826 203.694 203.981h0.015zM481.826 462.199c0.010 0 0.022 0 0.034 0 65.565 0 118.716 53.151 118.716 118.716s-53.151 118.716-118.716 118.716c-65.565 0-118.716-53.151-118.716-118.716v0c0-0.030 0-0.066 0-0.102 0-65.508 53.105-118.613 118.613-118.613 0.012 0 0.024 0 0.036 0h-0.002z" />
<glyph unicode="&#xe905;" glyph-name="icon_armichair_30px" d="M795.307 34.987v-58.027c0-21.83-17.697-39.526-39.526-39.526s-39.526 17.697-39.526 39.526v55.091h-408.508v-55.091c0.011-0.346 0.017-0.753 0.017-1.161 0-21.83-17.697-39.526-39.526-39.526s-39.526 17.697-39.526 39.526c0 0.408 0.006 0.815 0.018 1.221l-0.001-0.059v58.027c-130.639 22.569-228.752 135.042-228.752 270.43 0 1.299 0.009 2.596 0.027 3.89l-0.002-0.196v184.73c-0.008 0.576-0.013 1.256-0.013 1.938 0 63.885 41.788 118.011 99.521 136.533l1.015 0.281v135.373c-0.013 0.831-0.021 1.812-0.021 2.794 0 103.362 82.854 187.372 185.77 189.238l0.175 0.002h451.106c103.091-1.868 185.945-85.878 185.945-189.24 0-0.982-0.007-1.963-0.022-2.942l0.002 0.148v-135.373c58.748-18.804 100.536-72.929 100.536-136.814 0-0.681-0.005-1.361-0.014-2.040l0.001 0.103v-184.73c0.016-1.1 0.025-2.399 0.025-3.7 0-135.376-98.096-247.841-227.084-270.19l-1.635-0.234zM844.425 767.966c0.008 0.482 0.012 1.051 0.012 1.621 0 59.411-47.627 107.699-106.784 108.765l-0.1 0.001h-451.106c-59.257-1.068-106.884-49.355-106.884-108.766 0-0.57 0.004-1.139 0.013-1.707l-0.001 0.086v-135.373c58.748-18.804 100.536-72.929 100.536-136.814 0-0.681-0.005-1.361-0.014-2.040l0.001 0.103v-172.442h463.804v172.442c-0.008 0.576-0.013 1.256-0.013 1.938 0 63.885 41.788 118.011 99.521 136.533l1.015 0.281zM944.981 493.841c0.022 0.608 0.034 1.323 0.034 2.041 0 33.706-27.324 61.030-61.030 61.030s-61.030-27.324-61.030-61.030c0-0.718 0.012-1.433 0.037-2.144l-0.003 0.103v-184.73c0.005-0.317 0.008-0.691 0.008-1.066 0-37.334-29.969-67.668-67.161-68.258l-0.055-0.001h-487.561c-37.234 0.61-67.183 30.937-67.183 68.258 0 0.375 0.003 0.749 0.009 1.123l-0.001-0.056v184.73c0.004 0.276 0.007 0.603 0.007 0.929 0 33.945-27.24 61.528-61.054 62.080l-0.052 0.001c-33.839-0.61-61.037-28.186-61.037-62.113 0-0.315 0.002-0.63 0.007-0.944l-0.001 0.048v-184.73c-0.013-0.841-0.021-1.835-0.021-2.829 0-105.173 84.294-190.658 189.008-192.581l0.18-0.003h487.697c104.909 1.907 189.222 87.399 189.222 192.585 0 0.995-0.008 1.988-0.023 2.979l0.002-0.15zM597.606 473.941c-21.79 0.804-39.187 18.511-39.492 40.35v0.029c-0.016 0.418-0.025 0.908-0.025 1.4 0 10.377 4.065 19.804 10.691 26.776l-0.016-0.017c7.157 7.909 17.397 12.913 28.808 13.107h0.034c21.804-0.785 39.22-18.499 39.526-40.35v-0.029c0.016-0.414 0.025-0.899 0.025-1.387 0-10.381-4.065-19.813-10.69-26.79l0.016 0.017c-7.16-7.923-17.417-12.932-28.846-13.107h-0.031zM597.606 632.422c-21.79 0.804-39.187 18.511-39.492 40.35v0.029c-0.016 0.418-0.025 0.908-0.025 1.4 0 10.377 4.065 19.804 10.691 26.776l-0.016-0.017c7.16 7.905 17.398 12.909 28.807 13.107h0.035c21.804-0.785 39.22-18.499 39.526-40.35v-0.029c0.016-0.414 0.025-0.899 0.025-1.387 0-10.381-4.065-19.813-10.69-26.79l0.016 0.017c-7.15-7.955-17.404-12.997-28.839-13.209l-0.037-0.001zM426.394 473.941c-21.804 0.785-39.22 18.499-39.526 40.35v0.029c-0.016 0.411-0.024 0.894-0.024 1.379 0 10.39 4.079 19.827 10.723 26.797l-0.015-0.016c7.153 7.915 17.395 12.922 28.81 13.107h0.033c21.79-0.804 39.187-18.511 39.492-40.35v-0.029c0.017-0.427 0.026-0.929 0.026-1.433 0-10.378-4.066-19.805-10.692-26.778l0.016 0.017c-7.162-7.896-17.402-12.888-28.81-13.073h-0.033zM426.394 632.422c-21.804 0.785-39.22 18.499-39.526 40.35v0.029c-0.015 0.403-0.024 0.877-0.024 1.353 0 10.398 4.078 19.843 10.722 26.823l-0.015-0.016c7.157 7.909 17.397 12.913 28.808 13.107h0.034c21.79-0.804 39.187-18.511 39.492-40.35v-0.029c0.016-0.421 0.026-0.916 0.026-1.413 0-10.373-4.066-19.796-10.691-26.763l0.015 0.016c-7.143-7.947-17.383-12.987-28.804-13.209l-0.039-0.001z" />
<glyph unicode="&#xe906;" glyph-name="icon_arrow_down_30px" d="M-0.171 448c0 282.77 229.23 512 512 512s512-229.23 512-512c0-282.77-229.23-512-512-512v0c-282.637 0.33-511.67 229.363-512 511.968v0.032zM939.11 448c0 235.905-191.239 427.145-427.145 427.145s-427.145-191.239-427.145-427.145c0-235.905 191.239-427.145 427.145-427.145 0.012 0 0.024 0 0.036 0h-0.002c235.781 0.291 426.839 191.361 427.11 427.118v0.026zM299.452 480.666c-7.716 7.687-12.491 18.321-12.491 30.071 0 23.441 19.002 42.443 42.443 42.443 11.691 0 22.277-4.727 29.953-12.373l152.882-152.267 152.269 152.883c7.685 7.719 18.321 12.496 30.071 12.496 23.434 0 42.431-18.997 42.431-42.431 0-11.683-4.722-22.263-12.361-29.936l-182.202-182.953c-7.678-7.679-18.286-12.429-30.003-12.429s-22.325 4.75-30.003 12.429v0z" />
<glyph unicode="&#xe907;" glyph-name="icon_arrow_left_30px" d="M512 960.239c282.77 0 512-229.23 512-512s-229.23-512-512-512c-282.77 0-512 229.23-512 512v0c0.33 282.637 229.363 511.67 511.968 512h0.032zM512 20.958c235.905 0 427.145 191.239 427.145 427.145s-191.239 427.145-427.145 427.145c-235.905 0-427.145-191.239-427.145-427.145 0-0.012 0-0.024 0-0.036v0.002c0.291-235.781 191.361-426.839 427.118-427.11h0.026zM544.666 660.617c7.687 7.716 18.321 12.491 30.071 12.491 23.441 0 42.443-19.002 42.443-42.443 0-11.691-4.727-22.277-12.373-29.953l-152.267-152.882 152.883-152.269c7.719-7.685 12.496-18.321 12.496-30.071 0-23.434-18.997-42.431-42.431-42.431-11.683 0-22.263 4.722-29.936 12.361l-182.953 182.202c-7.679 7.678-12.429 18.286-12.429 30.003s4.75 22.325 12.429 30.003v0z" />
<glyph unicode="&#xe908;" glyph-name="icon_arrow_right_30px" d="M512-64.239c-282.77 0-512 229.23-512 512s229.23 512 512 512c282.77 0 512-229.23 512-512v0c-0.33-282.637-229.363-511.67-511.968-512h-0.032zM512 875.042c-235.905 0-427.145-191.239-427.145-427.145s191.239-427.145 427.145-427.145c235.905 0 427.145 191.239 427.145 427.145 0 0.012 0 0.024 0 0.036v-0.002c-0.291 235.781-191.361 426.839-427.118 427.11h-0.026zM479.334 235.383c-7.687-7.716-18.321-12.491-30.071-12.491-23.441 0-42.443 19.002-42.443 42.443 0 11.691 4.727 22.277 12.373 29.953l152.267 152.882-152.883 152.269c-7.719 7.685-12.496 18.321-12.496 30.071 0 23.434 18.997 42.431 42.431 42.431 11.683 0 22.263-4.722 29.936-12.361l182.953-182.202c7.679-7.678 12.429-18.286 12.429-30.003s-4.75-22.325-12.429-30.003v0z" />
<glyph unicode="&#xe909;" glyph-name="icon_attach_30px" d="M1010.586 586.957c-8.422 7.748-19.707 12.498-32.102 12.498s-23.681-4.75-32.136-12.528l0.034 0.031-545.69-515.721c-33.684-30.956-78.805-49.931-128.358-49.931s-94.675 18.975-128.495 50.055l0.137-0.124c-32.728 30.005-53.171 72.954-53.171 120.678s20.443 90.673 53.050 120.569l0.121 0.11 561.869 530.944c21.050 19.343 49.247 31.199 80.213 31.199s59.163-11.856 80.299-31.276l-0.086 0.078c20.465-18.752 33.25-45.6 33.25-75.435s-12.784-56.683-33.173-75.366l-0.076-0.069-465.476-437.555c-8.412-7.727-19.679-12.463-32.051-12.463s-23.639 4.736-32.086 12.494l0.034-0.031c-8.153 7.511-13.242 18.24-13.242 30.157s5.089 22.646 13.213 30.131l0.029 0.026 224.666 211.217c8.164 7.512 13.261 18.248 13.261 30.174s-5.097 22.662-13.232 30.148l-0.029 0.026c-8.422 7.748-19.707 12.498-32.102 12.498s-23.681-4.75-32.136-12.528l0.034 0.031-224.734-211.217c-24.522-22.494-39.838-54.685-39.838-90.453s15.316-67.959 39.748-90.372l0.090-0.082c25.26-23.241 59.111-37.489 96.29-37.489s71.030 14.248 96.391 37.581l-0.101-0.092v0.171l465.442 437.214c36.829 33.752 59.834 82.072 59.834 135.765s-23.006 102.014-59.697 135.641l-0.137 0.124c-37.896 34.848-88.671 56.209-144.435 56.209s-106.539-21.362-144.588-56.348l0.153 0.139-561.869-530.842c-49.025-44.998-79.644-109.377-79.644-180.907s30.619-135.908 79.464-180.744l0.179-0.162c50.534-46.48 118.247-74.973 192.614-74.973s142.081 28.493 192.818 75.158l-0.203-0.185 545.826 515.755c8.025 7.498 13.027 18.144 13.027 29.958 0 11.896-5.072 22.608-13.171 30.091l-0.028 0.025z" />
<glyph unicode="&#xe90a;" glyph-name="icon_baby_30px" horiz-adv-x="461" d="M438.238 524.902c14.086 18 22.588 40.962 22.588 65.909 0 9.82-1.317 19.333-3.785 28.37l0.175-0.754c-8.569 33.029-32.173 59.206-62.884 71.165l-0.706 0.242c-8.037 41.242-29.958 76.367-60.603 101.122l-0.325 0.254v63.454c0.001 0.192 0.002 0.42 0.002 0.648 0 28.778-11.459 54.879-30.062 73.991l0.023-0.024c-18.264 18.951-43.867 30.72-72.219 30.72-0.014 0-0.029 0-0.043 0h0.002c-0.002 0-0.003 0-0.005 0-28.433 0-54.098-11.853-72.323-30.888l-0.035-0.036c-18.5-19.112-29.902-45.193-29.902-73.936 0-0.167 0-0.334 0.001-0.5v0.026-63.454c-30.957-25.013-52.866-60.138-60.718-100.295l-0.176-1.081c-31.434-12.263-55.038-38.495-63.431-70.856l-0.159-0.722c-2.271-8.237-3.576-17.696-3.576-27.459 0-24.921 8.503-47.855 22.765-66.062l-0.177 0.234c-14.070-17.966-22.562-40.888-22.562-65.794 0-0.065 0-0.13 0-0.196v0.010-417.621c-0.001-0.159-0.001-0.347-0.001-0.536 0-28.735 11.402-54.807 29.929-73.937l-0.027 0.028c18.249-19.050 43.886-30.898 72.289-30.925h256.346c0.029 0 0.064 0 0.099 0 28.334 0 53.918 11.77 72.131 30.688l0.030 0.032c18.581 19.098 30.039 45.208 30.039 73.994 0 0.194-0.001 0.389-0.002 0.583v-0.030 417.724c0 0 0 0.001 0 0.001 0 24.965-8.546 47.933-22.873 66.14l0.174-0.229zM185.651 736.358c11.479 7.101 19.013 19.622 19.013 33.902 0 0.081 0 0.163-0.001 0.244v-0.013 84.173c0 0.022 0 0.048 0 0.073 0 9.028 4.454 17.017 11.284 21.887l0.082 0.056c3.992 2.879 8.983 4.604 14.376 4.604 4.477 0 8.677-1.189 12.3-3.268l-0.121 0.064c8.2-4.565 13.656-13.181 13.656-23.071 0-0.121-0.001-0.242-0.002-0.363v0.018-84.275c0-0.063-0.001-0.137-0.001-0.211 0-14.294 7.548-26.825 18.876-33.824l0.171-0.098c15.727-9.556 28.131-23.189 35.94-39.447l0.241-0.557h-162.133c8.066 16.864 20.508 30.534 35.872 39.874l0.412 0.232zM94.618 484.318l1.161 0.41c2.492 0.922 12.834 0.922 111.821 0.819h150.835c14.287-0.248 25.773-11.888 25.773-26.211 0-0.121-0.001-0.242-0.002-0.363v0.018-26.522h-89.737c-21.268-0.646-38.264-18.042-38.264-39.407s16.996-38.761 38.205-39.406l0.059-0.001h89.805v-53.077h-89.805c-21.268-0.646-38.264-18.042-38.264-39.407s16.996-38.761 38.205-39.406l0.059-0.001h89.805v-53.077h-89.805c-21.268-0.646-38.264-18.042-38.264-39.407s16.996-38.761 38.205-39.406l0.059-0.001h89.805v-48.503c0.001-0.103 0.002-0.224 0.002-0.345 0-14.323-11.486-25.962-25.75-26.21h-256.023c-14.305 0.249-25.807 11.904-25.807 26.245 0 0.109 0.001 0.218 0.002 0.327v-0.017 417.621c-0.001 0.1-0.002 0.218-0.002 0.336 0 11.543 7.412 21.355 17.737 24.935l0.185 0.056zM102.298 617.438h256.341c8.943-0.044 16.796-4.667 21.341-11.643l0.060-0.099c2.802-4.161 4.472-9.285 4.472-14.8 0-4.576-1.15-8.883-3.177-12.649l0.070 0.142c-4.227-8.439-12.808-14.131-22.718-14.131-0.017 0-0.034 0-0.052 0h-255.997c-14.251 0.527-25.604 12.207-25.604 26.539s11.353 26.012 25.556 26.537l0.048 0.001z" />
<glyph unicode="&#xe90b;" glyph-name="icon_bag_30px" d="M895.966 756.804h-42.633c0 23.564-19.103 42.667-42.667 42.667s-42.667-19.103-42.667-42.667v0h-42.667v76.629c-0.348 69.976-57.155 126.568-127.179 126.568-0.216 0-0.433-0.001-0.649-0.002h-171.043c-0.183 0.001-0.399 0.001-0.616 0.001-70.024 0-126.831-56.592-127.179-126.535v-76.662h-42.667c0 23.564-19.103 42.667-42.667 42.667s-42.667-19.103-42.667-42.667v0h-42.633c-0.173 0.001-0.377 0.001-0.582 0.001-70.163 0-127.085-56.695-127.452-126.771v-567.16c0.329-70.141 57.265-126.875 127.453-126.875 0.205 0 0.409 0 0.613 0.001h767.968c0.152-0.001 0.333-0.001 0.513-0.001 70.187 0 127.124 56.733 127.452 126.843v567.156c-0.367 70.112-57.289 126.807-127.452 126.807-0.205 0-0.409 0-0.613-0.001h0.031zM383.966 833.434c0.116 23.25 18.99 42.053 42.257 42.053 0.072 0 0.144 0 0.216-0.001h171.099c0.061 0 0.133 0 0.205 0 23.266 0 42.141-18.803 42.257-42.042v-76.606h-256zM768 672.29v-651.776h-512v651.776zM85.333 62.874v567.125c0.135 23.386 19.125 42.292 42.529 42.292 0.060 0 0.12 0 0.181 0h42.624v-651.776h-42.633c-0.051 0-0.111 0-0.171 0-23.429 0-42.433 18.944-42.53 42.351v0.009zM938.667 62.874c-0.097-23.415-19.101-42.36-42.53-42.36-0.060 0-0.12 0-0.18 0h-42.624v651.776h42.633c0.051 0 0.111 0 0.171 0 23.405 0 42.394-18.906 42.529-42.279v-0.013z" />
<glyph unicode="&#xe90c;" glyph-name="icon_ball_30px" d="M512 960c-282.77 0-512-229.23-512-512s229.23-512 512-512c282.77 0 512 229.23 512 512v0c-0.427 282.598-229.402 511.573-511.959 512h-0.041zM512 19.456c-23.095 0.050-45.731 1.835-67.836 5.232l2.505-0.317c2.295 16.913 3.605 36.462 3.605 56.316 0 97.991-31.908 188.53-85.902 261.793l0.855-1.215c-65.702 89.011-162.118 152.070-273.343 173.629l-2.796 0.451c33.713 205.888 210.318 361.082 423.172 361.082 16.866 0 33.504-0.974 49.861-2.87l-1.993 0.188c-3.995-22.277-6.279-47.919-6.279-74.095 0-97.686 31.811-187.942 85.638-260.975l-0.852 1.212c68.242-94.553 171.713-160.029 290.802-177.217l2.335-0.276c-41.424-196.894-213.534-342.636-419.738-342.938h-0.034zM297.847 291.806c43.016-58.44 68.841-131.844 68.841-211.28 0-12.287-0.618-24.429-1.824-36.397l0.123 1.508c-159.993 60.043-273.229 208.556-280.581 384.433l-0.029 0.864c88.060-19.998 162.142-69.86 212.778-138.151l0.692-0.977zM940.305 445.406c-96.858 14.894-179.217 67.509-233.034 142.086l-0.711 1.035c-43.078 58.275-68.951 131.547-68.951 210.861 0 19.963 1.639 39.543 4.79 58.613l-0.283-2.074c174.287-57.084 298.005-218.139 298.291-408.132v-0.034c0.025-0.231 0.040-0.498 0.040-0.769 0-0.513-0.052-1.014-0.15-1.498l0.008 0.048z" />
<glyph unicode="&#xe90d;" glyph-name="icon_ball_soccer_30px" d="M874.052 810.052c-92.657 92.657-220.662 149.967-362.052 149.967-282.78 0-512.019-229.239-512.019-512.019 0-141.39 57.31-269.395 149.967-362.052v0c92.657-92.657 220.662-149.967 362.052-149.967 282.78 0 512.019 229.239 512.019 512.019 0 141.39-57.31 269.395-149.967 362.052v0zM618.052 29.867c-31.914-8.434-68.553-13.278-106.324-13.278-38.639 0-76.094 5.069-111.737 14.578l3.020-0.685c0.279 2.298 0.438 4.96 0.438 7.658 0 6.535-0.933 12.853-2.672 18.826l0.118-0.475-35.43 124.928 42.189 53.828c4.194-0.817 9.019-1.289 13.954-1.297h180.299c4.109 0.003 8.144 0.313 12.085 0.909l-0.445-0.055 41.882-53.419-35.43-124.928c-1.519-5.325-2.392-11.442-2.392-17.762 0-3.113 0.212-6.176 0.622-9.177l-0.039 0.349zM290.577 151.040l24.576-86.63c-45.919 23.97-85.113 53.927-118.426 89.464l-0.222 0.239zM86.801 520.943c10.778 61.184 32.962 115.683 64.396 163.567l-1.010-1.639 4.233-0.546 23.245-109.227zM512 800.939l-90.249 65.877 0.99 3.413c26.836 5.893 57.662 9.269 89.276 9.269s62.44-3.376 92.136-9.786l-2.86 0.518 1.024-3.413zM846.199 573.099l23.245 109.227 4.233 0.546c30.454-46.231 52.672-100.715 63.102-159.279l0.386-2.615zM792.542 708.198l-27.034-127.078-67.482-30.14-139.947 102.025c-1.809 1.297-3.686 2.56-5.632 3.721v73.83l104.96 76.459c12.213 9.013 21.167 21.824 25.152 36.668l0.107 0.469c53.446-23.582 99.027-55.443 137.319-94.48l0.068-0.069c-13.847-9.687-23.778-24.152-27.431-40.96l-0.081-0.444zM424.311 312.798v0zM600.269 314.573h-176.538l-54.613 168.311 142.882 103.936 142.848-104.004zM471.689 656.828c-1.946-1.161-3.823-2.389-5.632-3.721l-140.186-101.99-67.379 30.003-27.068 127.078c-3.736 17.259-13.68 31.727-27.328 41.26l-0.218 0.144c38.377 39.125 83.981 70.998 134.675 93.483l2.78 1.101c4.146-15.29 13.144-28.066 25.207-36.903l0.188-0.131 104.994-76.595zM112.845 442.948l112.64 64.649 62.635-27.955c0.393-7.214 1.712-13.982 3.844-20.378l-0.158 0.546 55.501-171.076-45.056-57.617-129.707 4.471c-0.645 0.022-1.402 0.035-2.163 0.035-10.781 0-20.971-2.533-30.006-7.038l0.391 0.176c-35.367 58.752-57.246 129.196-59.715 204.551l-0.018 0.693c11.753 0.335 22.672 3.613 32.136 9.117l-0.323-0.174zM719.121 231.117l-43.281 55.228c0.205 0.512 0.375 1.058 0.546 1.536l55.74 171.827c1.988 5.874 3.309 12.666 3.678 19.71l0.008 0.189 62.635 27.955 112.64-64.649c9.191-5.348 20.175-8.618 31.899-8.907l0.084-0.002c-2.487-76.46-24.585-147.267-61.392-208.191l1.078 1.924c-9.138 4.932-19.998 7.836-31.535 7.851h-2.292zM827.563 154.214c-34.319-36.684-74.579-67.278-119.341-90.365l-2.446-1.147 25.020 88.337z" />
<glyph unicode="&#xe90e;" glyph-name="icon_ballon_30px" horiz-adv-x="853" d="M853.333 620.203c0 187.255-190.020 339.797-426.667 339.797s-426.667-152.542-426.667-339.797c0-181.589 166.878-453.291 382.566-486.707v-110.148h-123.836c-0.364 0.011-0.792 0.017-1.221 0.017-24.13 0-43.691-19.561-43.691-43.691s19.561-43.691 43.691-43.691c0.429 0 0.857 0.006 1.284 0.018l-0.063-0.001h336.111c0.364-0.011 0.792-0.017 1.221-0.017 24.13 0 43.691 19.561 43.691 43.691s-19.561 43.691-43.691 43.691c-0.429 0-0.857-0.006-1.284-0.018l0.063 0.001h-123.802v110.148c215.415 33.621 382.293 306.995 382.293 486.707zM426.667 874.94c39.868 0 99.465-100.318 99.465-252.587 0-172.203-61.918-377.003-99.465-403.115-37.547 26.112-99.465 228.693-99.465 403.115 0 154.59 59.597 252.587 99.465 252.587zM767.249 622.353c0-106.359-92.877-290.884-220.979-368.845 39.037 108.779 63.014 234.332 66.123 365.051l0.027 1.439c0.107 3.935 0.167 8.567 0.167 13.213 0 79.931-17.957 155.667-50.057 223.396l1.352-3.171c119.603-39.083 203.366-127.898 203.366-231.151zM86.118 622.353c0 103.219 83.558 192.068 203.162 231.356-30.781-64.786-48.756-140.774-48.756-220.961 0-4.411 0.054-8.81 0.163-13.195l-0.013 0.65c3.023-132.134 26.858-257.729 68.339-374.984l-2.598 8.426c-127.659 77.961-220.331 262.622-220.331 368.64z" />
<glyph unicode="&#xe90f;" glyph-name="icon_barcodes_30px" d="M924.058 857.6h-824.115c-0.184 0.001-0.401 0.002-0.619 0.002-54.534 0-98.803-43.948-99.323-98.359v-622.436c0.52-54.46 44.79-98.408 99.324-98.408 0.218 0 0.435 0.001 0.652 0.002h824.082c0.224-0.002 0.489-0.003 0.754-0.003 54.507 0 98.745 43.965 99.188 98.367v622.429c-0.52 54.46-44.79 98.408-99.324 98.408-0.218 0-0.435-0.001-0.652-0.002h0.033zM942.592 136.806c-0.058-10.098-8.257-18.262-18.363-18.262-0.060 0-0.12 0-0.18 0.001h-824.106c-0.051-0.001-0.111-0.001-0.171-0.001-10.106 0-18.306 8.164-18.363 18.257v622.392c0.058 10.098 8.257 18.262 18.363 18.262 0.060 0 0.12 0 0.18-0.001h824.106c0.051 0.001 0.111 0.001 0.171 0.001 10.106 0 18.306-8.164 18.363-18.257v-0.005zM232.755 700.041c-0.298 0.007-0.648 0.011-1 0.011-24.834 0-45.029-19.866-45.557-44.574l-0.001-0.049v-380.723c1.198-24.775 21.577-44.408 46.541-44.408s45.342 19.633 46.537 44.301l0.004 0.107v380.723c-0.626 24.775-20.858 44.619-45.725 44.619-0.281 0-0.561-0.003-0.841-0.008l0.042 0.001zM791.313 700.041c-0.298 0.007-0.648 0.011-1 0.011-24.834 0-45.029-19.866-45.557-44.574l-0.001-0.049v-380.689c1.198-24.775 21.577-44.408 46.541-44.408s45.342 19.633 46.537 44.301l0.004 0.107v380.689c-0.53 24.756-20.724 44.622-45.558 44.622-0.339 0-0.678-0.004-1.016-0.011l0.050 0.001zM605.116 700.041c-0.298 0.007-0.648 0.011-1 0.011-24.834 0-45.029-19.866-45.557-44.574l-0.001-0.049v-239.821c1.198-24.775 21.577-44.408 46.541-44.408s45.342 19.633 46.537 44.301l0.004 0.107v239.821c-0.72 24.793-20.991 44.617-45.891 44.617-0.222 0-0.444-0.002-0.666-0.005h0.034zM605.116 310.682c-23.821-1.053-42.735-20.62-42.735-44.605 0-24.658 19.989-44.646 44.646-44.646 24.655 0 44.643 19.985 44.646 44.639v0c-0.53 24.757-20.724 44.623-45.558 44.623-0.351 0-0.702-0.004-1.052-0.012l0.052 0.001zM418.918 700.041c-0.298 0.007-0.648 0.011-1 0.011-24.834 0-45.029-19.866-45.557-44.574l-0.001-0.049v-239.821c1.198-24.775 21.577-44.408 46.541-44.408s45.342 19.633 46.537 44.301l0.004 0.107v239.821c-0.53 24.756-20.724 44.622-45.558 44.622-0.339 0-0.678-0.004-1.016-0.011l0.050 0.001zM418.918 310.682c-23.821-1.053-42.735-20.62-42.735-44.605 0-24.658 19.989-44.646 44.646-44.646 24.655 0 44.643 19.985 44.646 44.639v0c-0.53 24.757-20.724 44.623-45.558 44.623-0.351 0-0.702-0.004-1.052-0.012l0.052 0.001z" />
<glyph unicode="&#xe910;" glyph-name="icon_basket_30px" d="M1023.59 557.909l-99.738-586.411c-3.461-20.266-20.895-35.499-41.887-35.499-0.046 0-0.092 0-0.138 0h-739.833c-21.003 0.083-38.432 15.28-41.98 35.275l-0.038 0.258-99.533 586.377c-0.341 2.032-0.535 4.374-0.535 6.76 0 23.586 19.001 42.734 42.531 42.972h112.969c0 196.996 159.697 356.693 356.693 356.693s356.693-159.697 356.693-356.693v0h112.64c23.632-0.449 42.617-19.713 42.617-43.41 0-2.231-0.168-4.422-0.493-6.562l0.030 0.24zM511.898 874.667c-148.174-0.132-268.547-118.972-271.152-266.542l-0.003-0.244h542.379c-2.609 147.838-123.021 266.693-271.214 266.786h-0.009zM92.843 522.411l85.333-501.077h667.682l85.094 501.077z" />
<glyph unicode="&#xe911;" glyph-name="icon_beauty_30px" d="M964.983-63.966h-321.775c-32.635 0.366-58.95 26.906-58.95 59.593 0 0.157 0.001 0.314 0.002 0.471v-0.024 408.917c-0.003 0.296-0.004 0.646-0.004 0.997 0 67.813 54.597 122.874 122.233 123.623l0.071 0.001h195.038c67.751-0.693 122.406-55.776 122.406-123.625 0-0.35-0.001-0.7-0.004-1.049v0.053-408.883c0.001-0.143 0.002-0.312 0.002-0.481 0-32.711-26.354-59.267-58.988-59.594h-0.031zM948.292 404.958c0.001 0.112 0.002 0.245 0.002 0.378 0 25.873-20.83 46.881-46.635 47.169h-195.099c-25.847-0.269-46.696-21.285-46.696-47.17 0-0.133 0.001-0.266 0.002-0.398v0.020-218.112h288.427zM948.292 109.636h-288.427v-96.529h288.427zM291.362-63.966h-169.028c-67.721 0.731-122.337 55.8-122.337 123.624 0 0.314 0.001 0.629 0.004 0.942v-0.048 322.901c0 0.078-0.001 0.17-0.001 0.261 0 26.805 17.576 49.506 41.833 57.205l0.425 0.116v114.449c0 0.078-0.001 0.17-0.001 0.261 0 26.805 17.576 49.506 41.833 57.205l0.425 0.116v222.31c-0.001 0.088-0.001 0.192-0.001 0.296 0 14.808 8.374 27.66 20.645 34.078l0.212 0.101 169.062 86.118c4.919 2.581 10.747 4.095 16.928 4.095 7.387 0 14.27-2.163 20.048-5.89l-0.146 0.088c10.838-6.927 17.921-18.897 17.921-32.521 0-0.087 0-0.174-0.001-0.26v0.013-308.258c24.683-7.827 42.258-30.535 42.258-57.347 0-0.143-0.001-0.286-0.001-0.429v0.022-114.551c24.683-7.828 42.257-30.535 42.257-57.346 0-0.047 0-0.094 0-0.141v0.007-322.901c0.002-0.266 0.003-0.58 0.003-0.894 0-67.825-54.616-122.893-122.268-123.624l-0.069-0.001zM253.508 859.273l-93.355-47.787v-195.891h93.355zM295.765 538.761h-177.869v-95.232h177.869zM337.92 366.455h-262.281v-305.903c-0.001-0.082-0.001-0.179-0.001-0.275 0-25.885 20.849-46.9 46.67-47.17h169.054c25.787 0.346 46.559 21.331 46.559 47.168 0 0.097 0 0.195-0.001 0.292v-0.015z" />
<glyph unicode="&#xe912;" glyph-name="icon_bike_30px" d="M834.867 446.43l-74.615 359.117h69.803c0.021 0 0.045 0 0.069 0 23.864 0 43.228 19.268 43.383 43.096v0.015c-0.174 23.828-19.53 43.076-43.382 43.076-0.024 0-0.049 0-0.073 0h-124.105c-23.668-1.539-42.283-21.113-42.283-45.035 0-3.197 0.333-6.317 0.965-9.326l-0.052 0.294 39.253-157.559h-409.6v58.027h36.864c0.361-0.011 0.786-0.017 1.213-0.017 23.809 0 43.11 19.301 43.11 43.11s-19.301 43.11-43.11 43.11c-0.427 0-0.852-0.006-1.275-0.018l0.062 0.001h-158.891c-0.361 0.011-0.786 0.017-1.213 0.017-23.809 0-43.11-19.301-43.11-43.11s19.301-43.11 43.11-43.11c0.427 0 0.852 0.006 1.275 0.018l-0.062-0.001h34.884v-112.64l-22.153-180.053c-105.781-18.321-185.212-109.409-185.212-219.049 0-122.684 99.455-222.14 222.14-222.14 0.914 0 1.826 0.006 2.737 0.017l-0.139-0.001c0.676-0.007 1.476-0.012 2.276-0.012 122.647 0 222.071 99.425 222.071 222.071 0 9.557-0.604 18.973-1.775 28.211l0.114-1.098 139.196 43.315c-7.581-21.576-11.961-46.452-11.961-72.351 0-124.155 100.647-224.802 224.802-224.802s224.802 100.647 224.802 224.802c0 111.567-81.274 204.152-187.845 221.779l-1.307 0.179zM224.461 88.61c-75.814 0.676-137.011 62.292-137.011 138.201 0 76.329 61.877 138.206 138.206 138.206 76.327 0 138.203-61.874 138.206-138.201v0c-0.847-76.405-62.898-138.037-139.384-138.206h-0.016zM271.053 444.382l18.603 151.689h431.309l28.638-152.303c-9.83-2.287-329.762-107.759-329.762-107.759-31.604 55.047-84.585 94.787-147.33 108.114l-1.457 0.259zM799.539 88.61c-75.814 0.676-137.011 62.292-137.011 138.201 0 76.329 61.877 138.206 138.206 138.206 76.327 0 138.203-61.874 138.206-138.201v0c-0.847-76.405-62.898-138.037-139.384-138.206h-0.016z" />
<glyph unicode="&#xe913;" glyph-name="icon_bluetooth_30px" horiz-adv-x="580" d="M357.069 448.034l210.569 209.476c7.749 7.767 12.541 18.488 12.541 30.327s-4.792 22.56-12.542 30.328l0.001-0.001-231.049 229.956c-7.406 7.376-17.622 11.936-28.902 11.936-5.851 0-11.416-1.227-16.451-3.438l0.263 0.103c-15.096-6.721-25.43-21.591-25.43-38.874 0-0.061 0-0.123 0-0.184v0.010-379.153l-195.482 194.56c-7.418 7.449-17.683 12.058-29.024 12.058-11.709 0-22.271-4.913-29.736-12.791l-0.017-0.018c-7.324-7.682-11.831-18.107-11.831-29.584 0-11.838 4.795-22.557 12.548-30.32v0l225.587-224.427-225.553-224.358c-7.747-7.772-12.537-18.495-12.537-30.337 0-11.481 4.502-21.91 11.837-29.619l-0.017 0.018c7.481-7.886 18.036-12.792 29.737-12.792 11.35 0 21.621 4.616 29.039 12.073l0.002 0.002 195.482 194.56v-378.88c0-0.058 0-0.128 0-0.197 0-17.277 10.335-32.14 25.16-38.744l0.27-0.107c4.752-2.138 10.3-3.393 16.137-3.413h0.008c11.332 0.025 21.585 4.624 29.014 12.049v0l231.083 229.854c7.749 7.767 12.541 18.488 12.541 30.327s-4.792 22.56-12.542 30.328l0.001-0.001zM349.184 817.118l129.98-129.297-129.98-129.331zM349.184 78.95v258.628l129.98-129.297z" />
<glyph unicode="&#xe914;" glyph-name="icon_book_30px" d="M1012.634 888.32c-87.279-91.955-3.174-186.607 0.41-190.601 6.793-7.381 10.957-17.273 10.957-28.138 0-0.020 0-0.040 0-0.059v0.003c0-0.205 0-0.205-0.41-0.205v-690.688c-0.058-23.558-19.169-42.633-42.735-42.633-0.096 0-0.192 0-0.288 0.001h-803.279c-0.193-0.001-0.422-0.001-0.651-0.001-97.244 0-176.135 78.58-176.638 175.706v0.048s0.205 685.022 0.205 685.67c2.94 90.407 76.934 162.578 167.784 162.578 0.161 0 0.323 0 0.484-0.001h812.724c0.212 0.004 0.461 0.006 0.711 0.006 23.432 0 42.428-18.996 42.428-42.428 0-11.351-4.458-21.661-11.718-29.275l0.016 0.017zM901.973 874.94h-733.525c-45.017 0-81.51-36.493-81.51-81.51s36.493-81.51 81.51-81.51v0h736.085c-11.209 24.907-17.739 53.991-17.739 84.6 0 28.253 5.563 55.206 15.654 79.825l-0.509-1.404zM938.018 626.449h-769.365c-0.116 0-0.253 0-0.391 0-30.060 0-58.271 7.912-82.666 21.767l0.83-0.434v-535.893c0.213-50.059 40.842-90.556 90.93-90.556 0.12 0 0.241 0 0.361 0.001h760.267zM285.594 451.413h453.018c0.030 0 0.066 0 0.102 0 23.564 0 42.667-19.103 42.667-42.667 0-23.528-19.044-42.608-42.559-42.667h-453.228c-23.564 0-42.667 19.103-42.667 42.667s19.103 42.667 42.667 42.667v0z" />
<glyph unicode="&#xe915;" glyph-name="icon_bookmark_30px" horiz-adv-x="1023" d="M855.654 960h-684.988c-94.257 0-170.667-76.41-170.667-170.667v0-810.598c0-0.015 0-0.033 0-0.051 0-23.545 19.087-42.633 42.633-42.633 10.783 0 20.631 4.003 28.139 10.605l-0.048-0.041 313.071 274.057 313.071-274.057c7.46-6.561 17.308-10.564 28.092-10.564 23.545 0 42.633 19.087 42.633 42.633 0 0.018 0 0.036 0 0.054v-0.003 469.265h213.231c23.549 0.019 42.633 19.114 42.633 42.667v0 298.667c0 0.007 0 0.016 0 0.024 0 93.248-74.784 169.030-167.648 170.641l-0.151 0.002zM682.325 72.772l-270.438 236.715c-7.458 6.552-17.299 10.549-28.075 10.549s-20.617-3.998-28.123-10.59l0.048 0.041-270.404-236.715v716.561c0 47.128 38.205 85.333 85.333 85.333v0h534.494c-0.614-1.058-1.195-2.15-1.775-3.209l-0.58-1.058q-1.707-3.174-3.413-6.451l-0.751-1.536q-1.399-2.935-2.662-5.905l-0.444-0.99c-0.956-2.253-1.843-4.506-2.697-6.827l-0.614-1.638q-1.126-3.14-2.15-6.315l-0.273-0.853c-0.717-2.355-1.399-4.745-2.014-7.134l-0.444-1.741c-0.546-2.253-1.092-4.506-1.57-6.827v-0.649c-0.512-2.458-0.922-4.915-1.331-7.407l-0.273-1.843c-0.341-2.423-0.683-4.813-0.922-7.27v-0.375c-0.239-2.526-0.444-5.086-0.58-7.68 0-0.649 0-1.263 0-1.911 0-2.594-0.205-5.188-0.205-7.817v-716.459zM938.325 533.367h-170.667v255.966c0 47.128 38.205 85.333 85.333 85.333s85.333-38.205 85.333-85.333v0-256z" />
<glyph unicode="&#xe916;" glyph-name="icon_browser_30px" d="M981.367-64h-938.735c-0.030 0-0.066 0-0.103 0-23.489 0-42.53 19.041-42.53 42.53 0 0.036 0 0.072 0 0.108v-0.006 938.735c0 0.030 0 0.066 0 0.103 0 23.489 19.041 42.53 42.53 42.53 0.036 0 0.072 0 0.108 0h938.661c0.051 0 0.111 0 0.171 0 23.489 0 42.53-19.041 42.53-42.53 0-0.036 0-0.072 0-0.108v0.006-938.667c0-0.051 0-0.111 0-0.171 0-23.489-19.041-42.53-42.53-42.53-0.036 0-0.072 0-0.108 0h0.006zM938.667 874.667h-853.333v-201.387h853.333zM938.667 587.742h-853.333v-566.409h853.333zM314.027 448h405.265c23.564 0 42.667-19.103 42.667-42.667s-19.103-42.667-42.667-42.667v0h-405.265c-23.564 0-42.667 19.103-42.667 42.667s19.103 42.667 42.667 42.667v0zM314.027 254.566h405.265c23.564 0 42.667-19.103 42.667-42.667s-19.103-42.667-42.667-42.667v0h-405.265c-23.564 0-42.667 19.103-42.667 42.667s19.103 42.667 42.667 42.667v0zM222.993 812.681c23.545 0 42.633-19.087 42.633-42.633s-19.087-42.633-42.633-42.633c-23.545 0-42.633 19.087-42.633 42.633v0c0 23.545 19.087 42.633 42.633 42.633v0zM439.706 812.681c23.545 0 42.633-19.087 42.633-42.633s-19.087-42.633-42.633-42.633c-23.545 0-42.633 19.087-42.633 42.633v0c0 23.545 19.087 42.633 42.633 42.633v0z" />
<glyph unicode="&#xe917;" glyph-name="icon_bus_30px" d="M1023.966 821.726v-180.907c0-22.32-18.094-40.414-40.414-40.414s-40.414 18.094-40.414 40.414v140.151h-64.034v-688.538c-0.065-30.484-16.040-57.222-40.060-72.359l-0.354-0.208v-43.315c-0.727-22.050-18.377-39.747-40.339-40.548l-0.075-0.002c-22.296 0.155-40.311 18.265-40.311 40.584 0 0 0 0.001 0 0.001v0 30.413h-494.387v-30.413c0-22.32-18.094-40.414-40.414-40.414s-40.414 18.094-40.414 40.414v0 43.281c-24.314 15.403-40.26 42.106-40.414 72.544v686.683h-63.625v-140.322c-0.719-20.919-17.408-37.715-38.216-38.602l-0.082-0.003c-22.329 0.097-40.395 18.211-40.414 40.549v178.861c0.115 22.414 18.215 40.563 40.6 40.755h101.94v14.336c0.23 46.952 38.162 84.968 85.060 85.333h566.99c46.932-0.366 84.864-38.382 85.094-85.311v-12.31h104.448c0.107 0.001 0.232 0.002 0.358 0.002 21.811 0 39.492-17.681 39.492-39.492 0-0.409-0.006-0.816-0.019-1.222l0.001 0.059zM800.802 874.667c0.040 0.243 0.062 0.523 0.062 0.809 0 2.922-2.369 5.291-5.291 5.291-0.275 0-0.545-0.021-0.808-0.061l0.029 0.004h-567.159c-4.096 0-6.212-1.946-6.007-6.042v-486.946c76.394 50.312 170.079 80.258 270.758 80.258 5.901 0 11.779-0.103 17.63-0.307l-0.85 0.024c5.345 0.209 11.622 0.327 17.926 0.327 102.086 0 196.893-31.168 275.424-84.506l-1.714 1.098zM801.007 250.3c0 65.126-119.467 138.274-289.69 138.274s-289.69-73.148-289.69-138.274c0 0 0-155.648 0.785-156.604 0.205 0 578.389-2.935 578.594-1.161zM685.397 175.582h-34.406c-21.902 0.655-39.408 18.567-39.408 40.567s17.506 39.912 39.347 40.566l0.060 0.001h34.372c21.902-0.655 39.408-18.567 39.408-40.567s-17.506-39.912-39.347-40.566l-0.060-0.001zM371.371 175.582h-34.338c-21.902 0.655-39.408 18.567-39.408 40.567s17.506 39.912 39.347 40.566l0.060 0.001h34.372c21.902-0.655 39.408-18.567 39.408-40.567s-17.506-39.912-39.347-40.566l-0.060-0.001z" />
<glyph unicode="&#xe918;" glyph-name="icon_calendar_30px" d="M981.982-64h-939.964c-0.163-0.002-0.355-0.004-0.548-0.004-22.904 0-41.472 18.568-41.472 41.472 0 0.121 0.001 0.242 0.002 0.364v-0.019 845.653c-0.001 0.092-0.001 0.202-0.001 0.311 0 22.904 18.568 41.472 41.472 41.472 0.192 0 0.385-0.001 0.576-0.004h183.233v52.975c0 23.206 18.812 42.018 42.018 42.018s42.018-18.812 42.018-42.018v0-52.975h405.197v52.975c0 23.206 18.812 42.018 42.018 42.018s42.018-18.812 42.018-42.018v0-52.975h183.433c0.163 0.002 0.355 0.004 0.547 0.004 22.904 0 41.472-18.568 41.472-41.472 0-0.109 0-0.218-0.001-0.328v0.017-845.653c0.001-0.102 0.001-0.224 0.001-0.345 0-22.904-18.568-41.472-41.472-41.472-0.193 0-0.385 0.001-0.577 0.004h0.029zM939.964 781.653h-141.244v-51.746c0-23.206-18.812-42.018-42.018-42.018s-42.018 18.812-42.018 42.018v0 51.746h-405.197v-51.746c0-23.206-18.812-42.018-42.018-42.018s-42.018 18.812-42.018 42.018v0 51.746h-141.414v-151.484h855.927zM939.964 546.577h-855.927v-526.985h855.927zM242.347 431.172c29.726-0.251 53.726-24.407 53.726-54.168 0-29.917-24.253-54.17-54.17-54.17s-54.169 24.251-54.17 54.168v0c0.116 29.942 24.416 54.17 54.374 54.17 0.084 0 0.168 0 0.252-0.001h-0.013zM242.347 249.378c29.726-0.251 53.726-24.407 53.726-54.168 0-29.917-24.253-54.17-54.17-54.17s-54.17 24.253-54.17 54.17c0 0.011 0 0.023 0 0.034v-0.002c0.135 29.927 24.428 54.136 54.374 54.136 0.084 0 0.168 0 0.252-0.001h-0.013zM420.659 431.172c29.726-0.251 53.726-24.407 53.726-54.168 0-29.917-24.253-54.17-54.17-54.17s-54.169 24.251-54.17 54.168v0c0.116 29.942 24.416 54.17 54.374 54.17 0.060 0 0.12 0 0.18 0h-0.009zM420.659 249.378c29.726-0.251 53.726-24.407 53.726-54.168 0-29.917-24.253-54.17-54.17-54.17s-54.17 24.253-54.17 54.17c0 0.011 0 0.023 0 0.034v-0.002c0.136 29.927 24.428 54.136 54.374 54.136 0.060 0 0.12 0 0.181 0h-0.009zM598.972 431.172c29.726-0.251 53.726-24.407 53.726-54.168 0-29.917-24.253-54.17-54.17-54.17s-54.169 24.251-54.17 54.168v0c0.116 29.942 24.416 54.17 54.374 54.17 0.060 0 0.12 0 0.18 0h-0.009zM598.972 249.378c29.726-0.251 53.726-24.407 53.726-54.168 0-29.917-24.253-54.17-54.17-54.17s-54.17 24.253-54.17 54.17c0 0.011 0 0.023 0 0.034v-0.002c0.136 29.927 24.428 54.136 54.374 54.136 0.060 0 0.12 0 0.181 0h-0.009zM781.653 431.172c29.726-0.251 53.726-24.407 53.726-54.168 0-29.917-24.253-54.17-54.17-54.17s-54.169 24.251-54.17 54.168v0c0.116 29.942 24.416 54.17 54.374 54.17 0.084 0 0.168 0 0.252-0.001h-0.013zM781.653 249.378c29.726-0.251 53.726-24.407 53.726-54.168 0-29.917-24.253-54.17-54.17-54.17s-54.17 24.253-54.17 54.17c0 0.011 0 0.023 0 0.034v-0.002c0.135 29.927 24.428 54.136 54.374 54.136 0.084 0 0.168 0 0.252-0.001h-0.013z" />
<glyph unicode="&#xe919;" glyph-name="icon_call_30px" d="M983.689 583.407c-0.485-0.654-0.97-1.401-1.41-2.177l-0.057-0.11c-82.625-123.787-173.236-231.582-274.36-328.494l-0.686-0.653c-97.338-101.461-204.861-191.79-321.339-269.786l-6.99-4.407c-0.72-0.526-1.537-1.015-2.398-1.427l-0.094-0.041c-37.662-25.282-84.022-40.351-133.902-40.351-66.967 0-127.59 27.162-171.453 71.069l-0.002 0.002c-43.966 43.905-71.163 104.592-71.163 171.631 0 133.957 108.594 242.551 242.551 242.551 51.846 0 99.893-16.267 139.315-43.975l-0.773 0.515c29.047 26.556 75.878 69.803 104.926 97.587 26.965 27.989 69.803 74.615 96.358 103.663-27.12 38.618-43.341 86.605-43.341 138.381 0 133.976 108.609 242.586 242.586 242.586s242.586-108.609 242.586-242.586c0-49.905-15.070-96.291-40.907-134.854l0.553 0.876zM892.382 828.757c-28.43 28.512-67.75 46.153-111.189 46.153s-82.759-17.641-111.186-46.149l-0.004-0.004c-28.346-28.51-45.867-67.809-45.867-111.2 0-42.758 17.013-81.542 44.64-109.952l-0.035 0.037c7.481-7.698 12.094-18.219 12.094-29.817 0-10.279-3.623-19.712-9.663-27.091l0.060 0.076c-5.222-6.485-85.675-94.242-125.201-135.612-42.633-40.96-130.423-121.412-136.875-126.635-7.29-6.027-16.732-9.683-27.029-9.683-11.608 0-22.131 4.647-29.81 12.182l0.007-0.007c-28.329 27.781-67.174 44.927-110.023 44.927-43.379 0-82.653-17.572-111.094-45.986l0.001 0.001c-28.382-28.521-45.927-67.849-45.927-111.275s17.545-82.753 45.934-111.281l-0.006 0.006c28.501-28.412 67.827-45.979 111.256-45.979 33.152 0 63.914 10.237 89.296 27.722l-0.531-0.345c116.904 86.646 219.79 172.946 317.294 264.891l-1.697-1.586c90.839 96.089 177.487 199.246 257.894 307.32l6.469 9.096c17.204 24.841 27.483 55.618 27.483 88.794 0 43.53-17.695 82.928-46.285 111.392l-0.006 0.006zM360.96 687.684c-50.185-0.039-90.858-40.712-90.897-90.893v-0.004c0-23.564-19.103-42.667-42.667-42.667s-42.667 19.103-42.667 42.667v0c0.097 97.276 78.948 176.104 176.225 176.162h0.006c23.564 0 42.667-19.103 42.667-42.667s-19.103-42.667-42.667-42.667v0zM360.96 866.987c-149.277-0.175-270.244-121.13-270.438-270.386v-0.019c0-23.564-19.103-42.667-42.667-42.667s-42.667 19.103-42.667 42.667v0c0.175 196.396 159.367 355.553 355.76 355.669h0.012c23.564 0 42.667-19.103 42.667-42.667s-19.103-42.667-42.667-42.667v0z" />
<glyph unicode="&#xe91a;" glyph-name="icon_camera_30px" d="M899.072-29.764h-774.144c-68.988 0.019-124.908 55.94-124.928 124.926v535.179c0 0.010 0 0.022 0 0.034 0 68.996 55.932 124.928 124.928 124.928h46.217c5.314 0 9.779 3.637 11.042 8.557l0.017 0.079 22.187 88.747c10.847 42.415 48.718 73.273 93.797 73.284h427.624c0.006 0 0.012 0 0.019 0 45.078 0 82.952-30.845 93.667-72.58l0.146-0.67 22.187-88.747c1.265-5.002 5.716-8.649 11.023-8.67h46.219c68.996 0 124.928-55.932 124.928-124.928 0-0.012 0-0.024 0-0.036v0.002-535.177c-0.019-68.988-55.94-124.908-124.926-124.928h-0.002zM938.667 630.34c0 0.010 0 0.022 0 0.034 0 21.868-17.727 39.595-39.595 39.595h-46.217c-45.090 0.008-82.971 30.865-93.687 72.614l-0.146 0.67-22.187 88.747c-1.28 4.98-5.729 8.602-11.025 8.602-0.012 0-0.024 0-0.036 0h-427.586c-0.010 0-0.022 0-0.034 0-5.296 0-9.745-3.621-11.008-8.523l-0.017-0.079-22.187-88.747c-10.858-42.408-48.722-73.26-93.796-73.284h-46.219c-21.868 0-39.595-17.727-39.595-39.595 0-0.012 0-0.024 0-0.036v0.002-535.177c0.019-21.86 17.735-39.575 39.593-39.595h774.146c21.86 0.019 39.575 17.735 39.595 39.593v0.002zM853.333 507.836c-23.564 0-42.667 19.103-42.667 42.667s19.103 42.667 42.667 42.667c23.564 0 42.667-19.103 42.667-42.667v0c0-23.564-19.103-42.667-42.667-42.667v0zM512 166.502c-141.385 0-256 114.615-256 256s114.615 256 256 256c141.385 0 256-114.615 256-256v0c-0.117-141.345-114.658-255.898-255.987-256.034h-0.013zM512 593.169c-94.257 0-170.667-76.41-170.667-170.667s76.41-170.667 170.667-170.667c94.257 0 170.667 76.41 170.667 170.667v0c-0.155 94.187-76.477 170.497-170.654 170.633h-0.013z" />
<glyph unicode="&#xe91b;" glyph-name="icon_car_30px" d="M921.6 45.227h-84.412v-64.444c0.011-0.364 0.017-0.792 0.017-1.221 0-24.13-19.561-43.691-43.691-43.691s-43.691 19.561-43.691 43.691c0 0.429 0.006 0.857 0.018 1.284l-0.001-0.063v64.444h-475.034v-64.444c0.011-0.364 0.017-0.792 0.017-1.221 0-24.13-19.561-43.691-43.691-43.691s-43.691 19.561-43.691 43.691c0 0.429 0.006 0.857 0.018 1.284l-0.001-0.063v64.444h-85.060c-56.676 0.556-102.407 46.63-102.407 103.385 0 0.422 0.003 0.843 0.008 1.263l-0.001-0.064v355.396c-0.004 0.356-0.007 0.778-0.007 1.199 0 56.755 45.731 102.829 102.354 103.385h16.13l47.241 247.808c12.971 60.143 82.773 102.4 165.376 102.4h361.813c82.739 0 152.337-42.462 165.513-102.4l48.265-247.774h14.916c56.676-0.556 102.407-46.63 102.407-103.385 0-0.422-0.003-0.843-0.008-1.263l0.001 0.064v-355.601c0.003-0.306 0.005-0.667 0.005-1.029 0-56.754-45.73-102.828-102.352-103.385h-0.053zM773.632 839.612c-16.924 20.709-42.466 33.824-71.072 33.824-3.401 0-6.758-0.185-10.062-0.546l0.408 0.036h-361.813c-2.93 0.334-6.325 0.524-9.765 0.524-28.547 0-54.032-13.11-70.762-33.638l-0.131-0.166-43.554-227.806h248.695c0 81.834 66.339 148.173 148.173 148.173s148.173-66.339 148.173-148.173v0h65.399zM542.515 611.84h126.293c0 34.875-28.272 63.147-63.147 63.147s-63.147-28.272-63.147-63.147v0zM938.94 505.139c-0.518 9.454-7.933 17.022-17.273 17.779l-0.067 0.004h-819.2c-9.385-0.757-16.788-8.29-17.337-17.664l-0.002-0.051v-355.328c0.535-9.44 7.944-16.99 17.273-17.745l0.067-0.004h819.2c9.385 0.757 16.788 8.29 17.337 17.664l0.002 0.051zM795.307 283.887h-28.433c-24.639 0-44.612 19.974-44.612 44.612s19.974 44.612 44.612 44.612h28.433c24.265-0.46 43.759-20.239 43.759-44.571 0-0.003 0-0.005 0-0.008v0c-0.623-24.096-19.746-43.529-43.657-44.643l-0.102-0.004zM256.99 283.887h-28.297c-24.639 0-44.612 19.974-44.612 44.612s19.974 44.612 44.612 44.612h28.433c24.639 0 44.612-19.974 44.612-44.612s-19.974-44.612-44.612-44.612v0z" />
<glyph unicode="&#xe91c;" glyph-name="icon_card_30px" d="M910.302 4.267h-796.399c-63.032 0.578-113.906 51.809-113.906 114.922 0 0.314 0.001 0.627 0.004 0.94v-0.048 655.838c-0.002 0.265-0.003 0.578-0.003 0.892 0 63.114 50.874 114.345 113.852 114.922h796.454c62.939-0.673 113.702-51.852 113.702-114.887 0-0.326-0.001-0.652-0.004-0.978v0.050-655.838c0.002-0.276 0.004-0.602 0.004-0.928 0-63.035-50.763-114.213-113.638-114.886l-0.064-0.001zM938.667 775.919c0 0.061 0.001 0.134 0.001 0.206 0 15.765-12.693 28.565-28.417 28.738h-796.347c-15.833-0.077-28.638-12.93-28.638-28.774 0-0.060 0-0.12 0.001-0.18v0.009-129.946h853.333zM938.667 558.729h-853.333v-438.613c0-0.061-0.001-0.134-0.001-0.206 0-15.765 12.693-28.565 28.417-28.738h796.551c15.74 0.173 28.434 12.974 28.434 28.739 0 0.073 0 0.145-0.001 0.218v-0.011zM320.853 357.717h-126.293c-23.468 0.679-42.234 19.865-42.234 43.435s18.766 42.756 42.172 43.433l0.062 0.001h126.293c23.468-0.679 42.234-19.865 42.234-43.435s-18.766-42.756-42.172-43.433l-0.062-0.001z" />
<glyph unicode="&#xe91d;" glyph-name="icon_cart_30px" d="M1015.194 707.823v0c-7.499 9.193-18.791 15.047-31.453 15.155h-714.975l-35.089 174.797c-3.46 16.62-16.221 29.531-32.484 33.158l-152.723 28.35c-2.241 0.446-4.818 0.702-7.454 0.702-8.556 0-16.483-2.69-22.982-7.272l0.126 0.084c-9.004-6.121-15.377-15.534-17.403-26.474l-0.039-0.253c-0.417-2.218-0.655-4.769-0.655-7.376 0-20.129 14.212-36.939 33.15-40.942l0.273-0.048 124.996-22.801 111.445-570.027c3.802-18.803 20.080-32.799 39.671-33.041h584.218c19.221 0.232 35.264 13.559 39.639 31.461l0.058 0.283 88.747 389.12c1.112 3.353 1.753 7.213 1.753 11.223 0 9.146-3.337 17.513-8.86 23.95l0.041-0.049zM922.658 625.903l-69.291-281.463h-502.272l-56.354 281.532zM366.626 198.724c-0.436 0.005-0.952 0.008-1.468 0.008-72.559 0-131.379-58.82-131.379-131.379s58.82-131.379 131.379-131.379c72.559 0 131.379 58.82 131.379 131.379 0 0.009 0 0.018 0 0.027v-0.001c0.001 0.163 0.001 0.356 0.001 0.549 0 71.927-58.057 130.293-129.865 130.796h-0.048zM414.413 67.379c-0.404-26.082-21.641-47.070-47.781-47.070-26.392 0-47.787 21.395-47.787 47.787 0 26.39 21.392 47.784 47.781 47.787v0c26.513-0.212 47.924-21.754 47.924-48.297 0-0.073 0-0.145 0-0.217v0.011zM793.327 198.724c-0.436 0.005-0.952 0.008-1.468 0.008-72.559 0-131.379-58.82-131.379-131.379s58.82-131.379 131.379-131.379c72.559 0 131.379 58.82 131.379 131.379 0 0.009 0 0.018 0 0.027v-0.001c0.001 0.163 0.001 0.356 0.001 0.549 0 71.927-58.057 130.293-129.865 130.796h-0.048zM841.114 67.379c-0.404-26.082-21.641-47.070-47.781-47.070-26.392 0-47.787 21.395-47.787 47.787 0 26.39 21.392 47.784 47.781 47.787v0c26.513-0.212 47.924-21.754 47.924-48.297 0-0.073 0-0.145 0-0.217v0.011z" />
<glyph unicode="&#xe91e;" glyph-name="icon_cash_30px" d="M512-64c-282.768 0.002-511.997 229.231-511.997 512s229.23 512 512 512c282.11 0 510.929-228.161 511.996-510.021v-0.102c0.004-0.761 0.006-1.66 0.006-2.56 0-282.393-228.925-511.317-511.317-511.317-0.242 0-0.484 0-0.727 0.001h0.037zM512 873.745c-1.023 0.009-2.233 0.014-3.443 0.014-235.133 0-425.745-190.613-425.745-425.745s190.613-425.745 425.745-425.745c235.133 0 425.745 190.613 425.745 425.745 0 0.655-0.001 1.31-0.004 1.965v-0.101c-1.11 233.098-189.328 421.866-422.107 423.866l-0.19 0.001zM545.621 491.11h-74.854c-22.426 0-37.376 18.739-37.376 45.022-0.074 0.936-0.116 2.026-0.116 3.126 0 21.639 16.304 39.469 37.297 41.878l0.195 0.018h130.799c22.791 0 41.267 18.476 41.267 41.267s-18.476 41.267-41.267 41.267h-52.292v41.233c0 22.706-18.407 41.114-41.114 41.114s-41.114-18.407-41.114-41.114v-41.267c-65.122-5.918-115.751-60.255-115.751-126.416 0-0.389 0.002-0.777 0.005-1.165v0.059c-0.010-0.605-0.016-1.318-0.016-2.033 0-68.554 54.963-124.271 123.226-125.488l0.114-0.002h74.65c22.426 0 37.376-18.739 37.376-45.022 0.072-0.925 0.114-2.004 0.114-3.092 0-21.638-16.303-39.468-37.295-41.878l-0.195-0.018h-130.697c-22.791 0-41.267-18.476-41.267-41.267s18.476-41.267 41.267-41.267h52.19v-41.267c0-22.706 18.407-41.114 41.114-41.114s41.114 18.407 41.114 41.114v0 41.267c65.248 6.349 115.832 60.916 115.832 127.296 0 69.015-54.678 125.259-123.077 127.776l-0.23 0.007z" />
<glyph unicode="&#xe91f;" glyph-name="icon_chart_30px" d="M576.478-64c-246.852 0-413.594 166.707-413.594 413.491 0 0.020 0 0.044 0 0.068 0 23.508 19.057 42.564 42.564 42.564 0.024 0 0.048 0 0.072 0h362.253v362.155c0 0.020 0 0.044 0 0.068 0 23.508 19.057 42.564 42.564 42.564 0.024 0 0.048 0 0.072 0h-0.004c246.852 0 413.594-166.673 413.594-413.491-0.253-247.038-200.477-447.226-447.504-447.42h-0.018zM653.244 709.154v-359.663c0-0.020 0-0.044 0-0.068 0-23.508-19.057-42.564-42.564-42.564-0.024 0-0.048 0-0.072 0h-359.727c21.129-179.712 140.425-285.525 325.598-285.525 199.966 0.253 361.995 162.317 362.189 362.272v0.019c0 185.378-105.813 304.435-285.423 325.53zM447.727 469.743h-405.094c-0.030 0-0.066 0-0.103 0-23.489 0-42.53 19.041-42.53 42.53 0 0.036 0 0.072 0 0.108v-0.006c0.33 247.119 200.599 447.353 447.7 447.625h0.027c0.030 0 0.066 0 0.103 0 23.489 0 42.53-19.041 42.53-42.53 0-0.036 0-0.072 0-0.108v0.006-404.992c0-0.030 0-0.066 0-0.103 0-23.489-19.041-42.53-42.53-42.53-0.036 0-0.072 0-0.108 0h0.006zM404.89 872.243c-166.161-20.741-296.429-151.056-316.918-315.458l-0.181-1.777h317.099z" />
<glyph unicode="&#xe920;" glyph-name="icon_chat_30px" d="M919.927 171.827h-425.916l-277.709-226.372c-7.366-5.854-16.802-9.392-27.064-9.392-7.591 0-14.73 1.936-20.951 5.341l0.228-0.114c-13.267 7.426-22.088 21.391-22.088 37.416 0 1.911 0.125 3.793 0.369 5.638l-0.023-0.217 25.293 187.733h-67.789c-57.476 0.077-104.064 46.582-104.277 104.018v579.809c0.078 57.566 46.714 104.214 104.268 104.311h815.796c57.444-0.194 103.936-46.806 103.936-104.277 0-0.012 0-0.024 0-0.036v0.002-579.789c-0.078-57.446-46.626-103.995-104.065-104.073h-0.007zM938.667 855.689c0 0.020 0 0.044 0 0.068 0 10.349-8.39 18.739-18.739 18.739-0.024 0-0.048 0-0.072 0l-815.578 0.171c-0.020 0-0.044 0-0.068 0-10.349 0-18.739-8.39-18.739-18.739 0-0.024 0-0.048 0-0.072v0.004-579.755c0-0.020 0-0.044 0-0.068 0-10.349 8.39-18.739 18.739-18.739 0.024 0 0.048 0 0.072 0h117.039c23.513-0.042 42.558-19.113 42.558-42.632 0-1.974-0.134-3.916-0.394-5.819l0.025 0.221-17.34-129.024 205.858 167.834c7.227 5.991 16.595 9.626 26.812 9.626 0.054 0 0.108 0 0.162 0h440.926c0.020 0 0.044 0 0.068 0 10.349 0 18.739 8.39 18.739 18.739 0 0.024 0 0.048 0 0.072v-0.004zM735.949 411.955h-447.966c-23.564 0-42.667 19.103-42.667 42.667s19.103 42.667 42.667 42.667v0h448.034c23.564 0 42.667-19.103 42.667-42.667s-19.103-42.667-42.667-42.667v0zM735.949 634.539h-447.966c-23.564 0-42.667 19.103-42.667 42.667s19.103 42.667 42.667 42.667v0h448.034c23.564 0 42.667-19.103 42.667-42.667s-19.103-42.667-42.667-42.667v0z" />
<glyph unicode="&#xe921;" glyph-name="icon_check" d="M995.499 844.544c17.65-19.061 28.478-44.661 28.478-72.789s-10.827-53.729-28.542-72.86l0.064 0.070-540.331-638.891c-2.404-3.149-4.779-5.93-7.295-8.577l0.041 0.044c-17.187-18.444-41.619-29.942-68.736-29.942s-51.548 11.499-68.684 29.886l-0.052 0.056-281.6 299.435c-17.65 19.061-28.478 44.661-28.478 72.789s10.827 53.729 28.542 72.86l-0.064-0.070c17.187 18.444 41.619 29.942 68.736 29.942s51.548-11.499 68.684-29.886l0.052-0.056 209.152-222.549 482.133 570.539c17.159 18.552 41.609 30.147 68.768 30.208h0.011c0.041 0 0.089 0 0.138 0 27.244 0 51.778-11.607 68.925-30.146l0.057-0.062z" />
<glyph unicode="&#xe922;" glyph-name="icon_check_30px" d="M873.984 86.050c-92.654-92.656-220.656-149.965-362.042-149.965-282.77 0-512 229.23-512 512s229.23 512 512 512c141.387 0 269.388-57.309 362.042-149.965v0c92.652-92.653 149.958-220.652 149.958-362.035s-57.306-269.381-149.958-362.035v0zM813.705 749.705c-77.212 77.218-183.884 124.979-301.71 124.979-235.641 0-426.667-191.025-426.667-426.667s191.025-426.667 426.667-426.667c117.826 0 224.497 47.761 301.71 124.979l0.001 0.001c77.205 77.21 124.956 183.872 124.956 301.687s-47.752 224.477-124.957 301.688l0.001-0.001zM479.198 269.346c-7.722-7.724-18.39-12.501-30.174-12.501s-22.452 4.777-30.174 12.501v0l-129.468 120.013c-7.722 7.722-12.498 18.39-12.498 30.174 0 23.567 19.105 42.672 42.672 42.672 11.784 0 22.452-4.776 30.174-12.498v0l98.987-89.839 235.827 226.884c7.736 7.748 18.429 12.542 30.242 12.542 23.601 0 42.733-19.132 42.733-42.733 0-11.788-4.773-22.46-12.491-30.192l0.001 0.001z" />
<glyph unicode="&#xe923;" glyph-name="icon_clock_30px" d="M512-64c-282.77 0-512 229.23-512 512s229.23 512 512 512c282.77 0 512-229.23 512-512v0c0-282.77-229.23-512-512-512v0zM512 874.667c-235.641 0-426.667-191.025-426.667-426.667s191.025-426.667 426.667-426.667c235.641 0 426.667 191.025 426.667 426.667v0c0 235.641-191.025 426.667-426.667 426.667v0zM512 405.333h-170.667c-23.564 0-42.667 19.103-42.667 42.667s19.103 42.667 42.667 42.667v0h128v256c0 23.564 19.103 42.667 42.667 42.667s42.667-19.103 42.667-42.667v0-298.667c0-23.564-19.103-42.667-42.667-42.667v0z" />
<glyph unicode="&#xe924;" glyph-name="icon_close" d="M242.562 879.145l700.605-700.605c44.655-44.655 44.655-117.055 0-161.711s-117.055-44.655-161.711 0v0l-700.605 700.605c-44.655 44.655-44.655 117.055 0 161.711s117.055 44.655 161.711 0v0zM943.145 717.438l-700.605-700.605c-44.655-44.655-117.055-44.655-161.711 0s-44.655 117.055 0 161.711v0l700.605 700.605c44.655 44.655 117.055 44.655 161.711 0s44.655-117.055 0-161.711v0z" />
<glyph unicode="&#xe925;" glyph-name="icon_close_30px" d="M874.052 85.948c-92.657-92.657-220.662-149.967-362.052-149.967-282.78 0-512.019 229.239-512.019 512.019 0 141.39 57.31 269.395 149.967 362.052v0c92.657 92.657 220.662 149.967 362.052 149.967 282.78 0 512.019-229.239 512.019-512.019 0-141.39-57.31-269.395-149.967-362.052v0zM512 877.261c-237.074 0-429.261-192.187-429.261-429.261s192.187-429.261 429.261-429.261c237.074 0 429.261 192.187 429.261 429.261v0c-0.291 236.957-192.304 428.97-429.233 429.261h-0.028zM682.428 277.538c-7.486-7.486-17.829-12.116-29.252-12.116s-21.766 4.63-29.252 12.116l-111.923 111.957-111.957-111.923c-7.47-7.389-17.746-11.954-29.089-11.954-22.848 0-41.37 18.522-41.37 41.37 0 11.342 4.565 21.619 11.957 29.092l111.953 111.919-111.923 111.957c-7.389 7.47-11.954 17.746-11.954 29.089 0 22.848 18.522 41.37 41.37 41.37 11.342 0 21.619-4.565 29.092-11.957l111.919-111.953 111.923 111.923c7.47 7.389 17.746 11.954 29.089 11.954 22.848 0 41.37-18.522 41.37-41.37 0-11.342-4.565-21.619-11.957-29.092l-111.919-111.919 111.923-111.923c7.478-7.49 12.102-17.831 12.102-29.252s-4.624-21.762-12.103-29.253l0.001 0.001z" />
<glyph unicode="&#xe926;" glyph-name="icon_cloud_30px" d="M798.515 38.4h-573.030c-124.667 0.567-225.51 101.76-225.51 226.507 0 74.721 36.181 140.992 91.979 182.248l0.616 0.435c-14.928 34.079-23.615 73.797-23.615 115.543 0 162.257 131.233 293.862 293.348 294.466h0.057c103.502-0.048 194.448-53.762 246.528-134.823l0.7-1.164c16.993 4.511 36.502 7.101 56.616 7.101 0.304 0 0.608-0.001 0.912-0.002h-0.047c128.368-0.407 232.283-104.515 232.38-232.917v-0.009c-0.033-9.827-0.639-19.476-1.788-28.958l0.116 1.174c31.978-16.064 58.673-38.272 79.442-65.273l0.396-0.536c29.025-37.665 46.519-85.518 46.519-137.456 0-124.75-100.924-225.927-225.578-226.337h-0.039zM362.359 771.959c-114.89-0.311-207.906-93.519-207.906-208.452 0-0.072 0-0.145 0-0.217v0.011c1.053-40.461 12.403-78.057 31.511-110.543l-0.586 1.077c3.971-6.397 6.325-14.158 6.325-22.469 0-17.124-9.992-31.914-24.464-38.859l-0.259-0.112c-48.541-22.858-81.539-71.371-81.539-127.591 0-77.527 62.749-140.398 140.23-140.595h572.845c77.457 0.278 140.14 63.133 140.14 140.628 0 63.714-42.371 117.531-100.472 134.812l-0.995 0.254c-17.892 5.878-30.584 22.433-30.584 41.953 0 4.103 0.561 8.075 1.61 11.844l-0.074-0.31c3.499 12.55 5.692 27.029 6.071 41.959l0.005 0.229c0 0.084 0 0.184 0 0.284 0 81.287-65.896 147.183-147.183 147.183-21.692 0-42.288-4.693-60.828-13.118l0.923 0.376c-5.14-2.361-11.153-3.738-17.487-3.738-17.034 0-31.742 9.958-38.62 24.37l-0.111 0.258c-33.903 71.678-105.495 120.445-188.511 120.764h-0.042z" />
<glyph unicode="&#xe927;" glyph-name="icon_cloud_computing_30px" d="M798.667 739.889c-32.057 127.373-145.582 220.172-280.782 220.172-2.081 0-4.158-0.022-6.228-0.066l0.309 0.005c-1.762 0.039-3.838 0.061-5.919 0.061-135.2 0-248.725-92.799-280.355-218.175l-0.427-1.996c-127.037-25.249-221.981-134.305-225.258-266.114l-0.007-0.347c0-0.125 0-0.273 0-0.421 0-30.441 5.366-59.629 15.203-86.67l-0.561 1.763c23.111-61.191 81.196-103.918 149.261-103.918 0.946 0 1.89 0.008 2.832 0.025l-0.142-0.002h170.109c-0.205-1.672-0.41-169.734-0.41-169.734h-110.141l21.537 18.601c9.069 7.869 14.772 19.413 14.772 32.288 0 23.568-19.106 42.674-42.674 42.674-10.693 0-20.467-3.933-27.955-10.43l0.053 0.045-108.059-93.348c-9.107-7.81-14.84-19.328-14.84-32.186s5.733-24.376 14.783-32.138l0.057-0.048 108.059-93.417c7.437-6.448 17.211-10.377 27.902-10.377 23.582 0 42.7 19.117 42.7 42.7 0 12.891-5.712 24.448-14.744 32.277l-0.053 0.045-21.332 18.601h152.771c0.020 0 0.044 0 0.068 0 23.506 0 42.561 19.055 42.561 42.561 0 0.024 0 0.048 0 0.072v-0.004s-0.205 210.691-0.41 212.363h181.202c-0.205-1.672-0.41-212.363-0.41-212.363 0-0.020 0-0.044 0-0.068 0-23.506 19.055-42.561 42.561-42.561 0.024 0 0.048 0 0.072 0h152.767l-21.332-18.601c-9.069-7.869-14.772-19.413-14.772-32.288 0-23.568 19.106-42.674 42.674-42.674 10.693 0 20.467 3.933 27.955 10.43l-0.053-0.045 108.059 93.417c9.107 7.81 14.84 19.328 14.84 32.186s-5.733 24.376-14.783 32.138l-0.057 0.048-108.059 93.417c-7.435 6.453-17.209 10.386-27.902 10.386-23.568 0-42.674-19.106-42.674-42.674 0-12.875 5.702-24.419 14.719-32.243l0.053-0.045 21.537-18.601h-110.107s-0.205 168.061-0.41 169.734h170.143c0.827-0.015 1.802-0.024 2.779-0.024 67.976 0 125.998 42.616 148.808 102.587l0.365 1.093c9.223 25.407 14.583 54.732 14.642 85.301v0.027c-3.078 132.268-98.134 241.464-223.534 266.272l-1.765 0.291zM929.082 416.122c-11.521-27.584-38.278-46.616-69.481-46.616-0.712 0-1.421 0.010-2.128 0.030l0.104-0.002h-690.983c-0.589-0.017-1.281-0.026-1.976-0.026-31.215 0-57.981 19.047-69.311 46.153l-0.184 0.496c-6.206 17.027-9.796 36.684-9.796 57.179 0 0.033 0 0.065 0 0.098v-0.005c4.335 99.913 82.957 180.145 181.784 187.004l0.613 0.034c20.397 2.272 36.353 18.591 38.046 38.959l0.010 0.155c12.976 99.322 97.068 175.225 198.888 175.225 2.566 0 5.121-0.048 7.664-0.144l-0.367 0.011c2.237 0.089 4.863 0.14 7.501 0.14 101.823 0 185.916-75.907 198.781-174.22l0.108-1.012c1.651-20.539 17.638-36.877 37.868-39.064l0.189-0.017c99.48-6.861 178.144-87.123 182.451-186.666l0.014-0.407c-0.040-20.536-3.638-40.219-10.21-58.483l0.381 1.211z" />
<glyph unicode="&#xe928;" glyph-name="icon_cloud_down_30px" d="M1009.868 344.876c-21.265-65.045-81.397-111.208-152.312-111.214h-262.47c-23.566 0-42.67 19.104-42.67 42.67s19.104 42.67 42.67 42.67v0h262.639c33.116 0.042 61.173 21.648 70.888 51.529l0.148 0.528c6.359 19.088 10.027 41.064 10.027 63.897 0 106.12-79.242 193.733-181.782 206.894l-1.040 0.109c-20.305 2.371-36.117 18.781-37.542 39.156l-0.007 0.134c-7.448 108.060-96.932 192.897-206.23 192.897s-198.783-84.837-206.195-192.253l-0.036-0.644c-1.582-20.445-17.313-36.774-37.34-39.269l-0.209-0.021c-103.584-13.154-182.867-100.732-182.867-206.828 0-22.835 3.673-44.813 10.46-65.374l-0.421 1.473c9.863-30.408 37.921-52.015 71.031-52.057h56.977c23.566 0 42.67-19.104 42.67-42.67s-19.104-42.67-42.67-42.67v0h-57.041c-0.003 0-0.006 0-0.010 0-70.934 0-131.081 46.181-152.017 110.117l-0.32 1.131c-9.015 26.978-14.216 58.040-14.216 90.316 0 137.825 94.835 253.499 222.809 285.33l2.023 0.426c25.973 136.826 144.616 238.889 287.098 238.889s261.125-102.063 286.809-237.067l0.288-1.822c130.11-32.249 225.035-148.008 225.035-285.939 0-32.284-5.2-63.353-14.809-92.416l0.595 2.078zM293.020 151.088l72.709-71.070v383.582c0 23.566 19.104 42.67 42.67 42.67s42.67-19.104 42.67-42.67v0-383.787l72.709 71.070c7.727 7.92 18.505 12.831 30.43 12.831 23.471 0 42.499-19.027 42.499-42.499 0-12.299-5.224-23.377-13.575-31.138l-0.026-0.024-145.008-141.936c-7.713-7.505-18.259-12.133-29.886-12.133s-22.172 4.628-29.896 12.142l0.010-0.009-144.94 141.936c-7.919 7.76-12.828 18.565-12.828 30.517 0 23.59 19.124 42.714 42.714 42.714 11.638 0 22.189-4.654 29.893-12.203l-0.007 0.007z" />
<glyph unicode="&#xe929;" glyph-name="icon_cloud_up_30px" d="M742.775 194.526h-61.781c-23.734 0-42.974 19.24-42.974 42.974s19.24 42.974 42.974 42.974h64.853c0.344-0.002 0.751-0.003 1.158-0.003 106.887 0 193.536 86.649 193.536 193.536s-86.649 193.536-193.536 193.536c-1.211 0-2.42-0.011-3.626-0.033l0.181 0.003h-25.463c-23.74 0.116-42.94 19.388-42.94 43.144 0 0.060 0 0.12 0 0.18v-0.009c0.011 0.701 0.017 1.529 0.017 2.358 0 89.94-72.91 162.85-162.85 162.85s-162.85-72.91-162.85-162.85c0-0.829 0.006-1.656 0.019-2.482l-0.001 0.125c0-0.051 0-0.112 0-0.172 0-23.708-19.123-42.95-42.785-43.143h-28.417c-0.337 0.002-0.734 0.003-1.133 0.003-106.887 0-193.536-86.649-193.536-193.536s86.649-193.536 193.536-193.536c1.214 0 2.426 0.011 3.635 0.033l-0.181-0.003h62.225c23.734 0 42.974-19.24 42.974-42.974s-19.24-42.974-42.974-42.974h-61.44c-154.857 0.422-280.352 125.534-281.395 280.204l-0.001 0.099c0.333 149.819 118.584 271.911 266.848 278.405l0.587 0.020c20.538 118.084 122.251 206.727 244.668 206.727s224.13-88.643 244.454-205.243l0.214-1.484c148.647-7.173 266.449-129.435 266.449-279.212 0-154.373-125.144-279.518-279.518-279.518-0.326 0-0.651 0.001-0.977 0.002h0.051zM318.805 387.55c-7.688 7.782-12.438 18.483-12.438 30.293s4.749 22.511 12.442 30.298l-0.004-0.004 162.85 163.84c7.822 7.501 18.458 12.119 30.174 12.119s22.352-4.618 30.189-12.134l-0.015 0.015 162.816-163.977c7.923-7.674 12.84-18.409 12.84-30.293s-4.918-22.62-12.829-30.283l-0.011-0.011c-7.791-7.654-18.482-12.379-30.276-12.379s-22.485 4.725-30.283 12.386l0.006-0.006-89.975 90.59c0.41-24.713 0.41-49.254 0-499.337 0-23.564-19.103-42.667-42.667-42.667s-42.667 19.103-42.667 42.667v0 499.439l-89.975-90.59c-7.707-7.671-18.336-12.413-30.071-12.413-11.753 0-22.395 4.756-30.107 12.448l0.001-0.001z" />
<glyph unicode="&#xe92a;" glyph-name="icon_colls" d="M768 64c0 70.692 57.308 128 128 128v0c70.692 0 128-57.308 128-128v0c0-70.692-57.308-128-128-128v0c-70.692 0-128 57.308-128 128v0zM384 64c0 70.692 57.308 128 128 128v0c70.692 0 128-57.308 128-128v0c0-70.692-57.308-128-128-128v0c-70.692 0-128 57.308-128 128v0zM0 64c0 70.692 57.308 128 128 128v0c70.692 0 128-57.308 128-128v0c0-70.692-57.308-128-128-128v0c-70.692 0-128 57.308-128 128v0zM768 448c0 70.692 57.308 128 128 128v0c70.692 0 128-57.308 128-128v0c0-70.692-57.308-128-128-128v0c-70.692 0-128 57.308-128 128v0zM384 448c0 70.692 57.308 128 128 128v0c70.692 0 128-57.308 128-128v0c0-70.692-57.308-128-128-128v0c-70.692 0-128 57.308-128 128v0zM0 448c0 70.692 57.308 128 128 128v0c70.692 0 128-57.308 128-128v0c0-70.692-57.308-128-128-128v0c-70.692 0-128 57.308-128 128v0zM768 832c0 70.692 57.308 128 128 128v0c70.692 0 128-57.308 128-128v0c0-70.692-57.308-128-128-128v0c-70.692 0-128 57.308-128 128v0zM384 832c0 70.692 57.308 128 128 128v0c70.692 0 128-57.308 128-128v0c0-70.692-57.308-128-128-128v0c-70.692 0-128 57.308-128 128v0zM0 832c0 70.692 57.308 128 128 128v0c70.692 0 128-57.308 128-128v0c0-70.692-57.308-128-128-128v0c-70.692 0-128 57.308-128 128v0z" />
<glyph unicode="&#xe92b;" glyph-name="icon_computer_30px" d="M985.771 280.166h-46.421v469.675c0.006 0.437 0.009 0.952 0.009 1.469 0 67.964-54.962 123.090-122.863 123.357h-611.694c-66.687-1.52-120.165-55.94-120.165-122.85 0-0.695 0.006-1.388 0.017-2.080l-0.001 0.104v-472.508h-46.421c-0.209 0.004-0.456 0.007-0.703 0.007-20.736 0-37.547-16.81-37.547-37.547 0-0.434 0.007-0.867 0.022-1.298l-0.002 0.063v-95.164c0.465-67.512 55.301-122.061 122.877-122.061 0.001 0 0.002 0 0.003 0h778.24c0.001 0 0.002 0 0.003 0 67.577 0 122.413 54.549 122.877 122.017v95.208c0.021 0.48 0.032 1.043 0.032 1.61 0 21.488-16.927 39.022-38.174 39.996l-0.088 0.003zM158.379 749.841c-0.004 0.223-0.006 0.487-0.006 0.751 0 25.619 20.768 46.387 46.387 46.387 0.014 0 0.028 0 0.042 0h611.667c0.012 0 0.026 0 0.041 0 25.619 0 46.387-20.768 46.387-46.387 0-0.276-0.002-0.551-0.007-0.826l0.001 0.041v-472.474h-704.512zM425.984 205.278c2.554-21.116 19.621-37.538 40.816-39.074l0.144-0.008h92.16c21.472 1.586 38.688 17.925 41.615 38.844l0.027 0.239c60.109 0 0 0 349.525 0v-70.212c-3.521-20.685-21.311-36.236-42.733-36.236-1.298 0-2.584 0.057-3.853 0.169l0.164-0.012h-780.971c-27.307 0-46.421 16.657-46.421 36.079v70.212c349.082 0 316.075 0.58 349.525 0z" />
<glyph unicode="&#xe92c;" glyph-name="icon_conversation_30px" d="M949.862 411.068h-40.107l5.905-102.4c0.082-1.165 0.128-2.526 0.128-3.897 0-15.58-6.006-29.758-15.83-40.344l0.035 0.038c-10.685-11.543-25.893-18.767-42.79-18.842h-0.014c-15.412 0.044-29.39 6.151-39.681 16.060l0.018-0.017-110.967 105.404v-190.089c0.002-0.184 0.003-0.401 0.003-0.618 0-41.097-33.103-74.462-74.1-74.884h-268.601l-157.389-149.47c-10.286-9.882-24.284-15.967-39.702-15.967-9.088 0-17.681 2.114-25.317 5.877l0.336-0.15c-20.029 9.829-33.574 30.076-33.574 53.487 0 1.345 0.045 2.68 0.133 4.003l-0.010-0.179 5.871 102.4h-40.073c-41.040 0.443-74.14 33.815-74.14 74.919 0 0.193 0.001 0.387 0.002 0.58v-0.030 432.060c-0.001 0.174-0.002 0.379-0.002 0.584 0 41.103 33.099 74.476 74.098 74.918h243.344v199.987c-0.001 0.174-0.002 0.379-0.002 0.584 0 41.115 33.119 74.496 74.134 74.919h558.291c41.041-0.442 74.14-33.815 74.14-74.919 0-0.205-0.001-0.411-0.002-0.616v0.031-397.926c0.001-0.174 0.002-0.379 0.002-0.584 0-41.103-33.099-74.476-74.098-74.918h-0.042zM74.138 611.635c-1.437-0.019-2.594-1.188-2.594-2.628 0 0 0 0 0 0v0-432.060c0 0 0 0 0 0 0-1.44 1.157-2.609 2.592-2.628h77.997c10.278-0.049 19.52-4.446 25.988-11.445l0.022-0.024c6.053-6.552 9.766-15.346 9.766-25.006 0-0.809-0.026-1.613-0.077-2.409l0.006 0.109-6.144-107.383 143.667 136.533c6.329 6.061 14.931 9.793 24.405 9.796h282.625c1.437 0.019 2.594 1.188 2.594 2.628 0 0 0 0 0 0v0 431.889c0 0 0 0 0 0 0 1.44-1.157 2.609-2.592 2.628h-558.253zM952.32 884.497c0 0 0 0 0 0 0 1.44-1.157 2.609-2.592 2.628h-558.116c-1.422-0.038-2.56-1.2-2.56-2.627 0 0 0-0.001 0-0.001v0-199.987h243.337c41.055-0.423 74.174-33.803 74.174-74.919 0-0.205-0.001-0.41-0.002-0.615v0.031-142.302l135.817-128.956-6.11 107.657c-0.043 0.669-0.068 1.451-0.068 2.239 0 9.679 3.71 18.492 9.785 25.094l-0.024-0.026c6.494 7.010 15.736 11.395 26.002 11.435h78.036c1.437 0.019 2.594 1.188 2.594 2.628 0 0 0 0 0 0v0zM512 419.26h-326.042c-20.114 0-36.42 16.306-36.42 36.42s16.306 36.42 36.42 36.42v0h326.042c20.114 0 36.42-16.306 36.42-36.42s-16.306-36.42-36.42-36.42v0zM228.966 350.208h240.026c20.124 0 36.437-16.314 36.437-36.437s-16.314-36.437-36.437-36.437v0h-240.026c-20.124 0-36.437 16.314-36.437 36.437s16.314 36.437 36.437 36.437v0z" />
<glyph unicode="&#xe92d;" glyph-name="icon_convert_30px" d="M1007.991 708.813l-213.333-173.739c-7.242-5.875-16.572-9.433-26.733-9.433-23.526 0-42.598 19.072-42.598 42.598 0 0.268 0.002 0.536 0.007 0.803l-0.001-0.040v130.287h-85.333c-117.828 0-213.333-131.345-213.333-251.324 0-167.936-133.7-338.193-298.667-338.193h-85.333c-23.468 0.679-42.234 19.865-42.234 43.435s18.766 42.756 42.172 43.433l0.062 0.001h85.333c117.726 0.034 213.299 131.379 213.299 251.358 0 167.936 133.7 338.193 298.667 338.193h85.333v130.287c-0.004 0.227-0.007 0.495-0.007 0.763 0 23.526 19.072 42.598 42.598 42.598 10.161 0 19.491-3.558 26.813-9.495l-0.079 0.062 213.333-173.739c9.827-8.117 16.042-20.304 16.042-33.943 0-13.623-6.201-25.798-15.935-33.855l-0.073-0.059zM810.667 826.095v-166.741l102.4 83.354zM234.701 670.208c-30.447 18.274-67.183 29.082-106.443 29.082-0.091 0-0.181 0-0.272 0h-85.319c-23.468 0.679-42.234 19.865-42.234 43.435s18.766 42.756 42.172 43.433l0.062 0.001h85.333c0.074 0 0.163 0 0.251 0 55.036 0 106.534-15.146 150.554-41.497l-1.336 0.741c12.862-7.801 21.325-21.727 21.325-37.629 0-7.993-2.138-15.486-5.873-21.94l0.113 0.211c-7.367-13.026-21.126-21.674-36.905-21.674-7.901 0-15.296 2.169-21.622 5.943l0.193-0.107zM522.206 232.823c32.986-22.655 73.781-36.181 117.735-36.181 0.069 0 0.137 0 0.206 0h85.323v130.355c-0.004 0.227-0.007 0.495-0.007 0.763 0 23.526 19.072 42.598 42.598 42.598 10.161 0 19.491-3.558 26.813-9.495l-0.079 0.062 213.333-173.739c9.805-8.117 16.004-20.29 16.004-33.911s-6.2-25.795-15.931-33.853l-0.073-0.059-213.333-173.739c-7.242-5.875-16.572-9.433-26.733-9.433-23.526 0-42.598 19.072-42.598 42.598 0 0.268 0.002 0.536 0.007 0.803l-0.001-0.040v130.219h-85.333c-0.041 0-0.091 0-0.14 0-61.596 0-118.766 18.949-165.998 51.336l1.001-0.648c-11.584 8.026-19.075 21.249-19.075 36.222 0 8.922 2.66 17.224 7.23 24.154l-0.102-0.165c7.63 11.736 20.679 19.388 35.515 19.388 8.821 0 17.010-2.705 23.783-7.33l-0.145 0.094zM810.803 69.871l102.4 83.354-102.4 83.354z" />
<glyph unicode="&#xe92e;" glyph-name="icon_cruise_30px" d="M1008.162 21.163l-67.55 54.34c-24.811 18.711-55.748 30.546-89.363 32.173l-0.373 0.014 148.514 324.267c2.209 5.065 3.494 10.967 3.494 17.169 0 19.144-12.246 35.429-29.332 41.446l-0.308 0.094-73.25 24.201c-31.13 162.748-170.667 329.182-346.795 353.075v48.674c-0.679 23.505-19.896 42.301-43.503 42.301s-42.824-18.796-43.502-42.239l-0.001-0.062v-48.674c-176.777-23.893-316.723-189.918-348.945-354.987l-68.813-22.357c-17.371-6.185-29.583-22.488-29.583-41.642 0-6.162 1.264-12.028 3.546-17.354l-0.109 0.287 146.773-323.823c-27.716-4.223-52.339-15.040-72.988-30.798l0.386 0.283-80.521-65.161c-9.591-8.19-15.633-20.293-15.633-33.808 0-10.198 3.44-19.593 9.224-27.087l-0.077 0.103c8.772-8.772 35.977-27.58 56.491-4.403l82.637 65.195c13.028 9.214 29.243 14.729 46.746 14.729s33.717-5.514 47.002-14.9l-0.256 0.172c27.69-20.368 62.465-32.596 100.096-32.596s72.406 12.228 100.568 32.928l-0.472-0.331c15.626 14.016 36.387 22.586 59.15 22.586 17.644 0 34.085-5.149 47.903-14.026l-0.353 0.212c32.853-33.859 78.783-54.872 129.62-54.872 37.738 0 72.772 11.579 101.742 31.379l-0.62-0.4c14.973 15.862 36.142 25.736 59.618 25.736 17.636 0 33.97-5.573 47.337-15.053l-0.254 0.171 67.55-54.306c7.361-5.987 16.851-9.613 27.187-9.613 23.887 0 43.251 19.364 43.251 43.251 0 13.55-6.231 25.645-15.985 33.576l-0.079 0.063zM509.884 786.261c134.929 0 249.549-116.053 292.864-238.933 0 0-273.613 93.389-288.666 93.389-13.653 0-297.882-95.266-297.882-95.266 42.871 123.597 157.935 240.811 293.683 240.811zM390.042 77.585c-26.146-19.627-64.444-25.498-116.941 14.609l-152.917 333.244 350.379 114.074v-421.41c-31.293-6.58-58.557-20.813-80.683-40.659l0.162 0.143zM633.958 64.649c-21.643 19.856-47.014 36.078-74.879 47.453l-1.682 0.607c0 0.614 0.205 426.667 0.205 426.667l343.893-113.869s-157.73-346.385-158.14-347.853c-15.42-16.953-37.569-27.553-62.193-27.553-17.64 0-34.009 5.439-47.523 14.732l0.284-0.185z" />
<glyph unicode="&#xe92f;" glyph-name="icon_dev_30px" d="M961.092-64h-898.185c-34.727 0.039-62.869 28.18-62.908 62.904v898.189c0.039 34.727 28.18 62.869 62.904 62.908h898.188c34.727-0.039 62.869-28.18 62.908-62.904v-898.189c-0.039-34.727-28.18-62.869-62.904-62.908h-0.004zM938.667 874.667h-853.333v-242.756h853.333zM938.667 546.577h-853.333v-525.244h853.333zM185.173 308.053l133.12 114.517c7.631 6.133 17.437 9.843 28.109 9.843s20.478-3.71 28.197-9.912l-0.088 0.068c7.094-5.753 11.592-14.469 11.592-24.235s-4.497-18.482-11.534-24.189l-0.058-0.045-104.858-90.146 104.892-90.078c7.094-5.753 11.592-14.469 11.592-24.235s-4.497-18.482-11.534-24.189l-0.058-0.045c-7.588-6.249-17.406-10.038-28.109-10.038s-20.521 3.789-28.185 10.099l0.076-0.061-133.12 114.517c-7.119 5.676-11.641 14.349-11.641 24.078 0 9.713 4.508 18.374 11.546 24.003l0.061 0.047zM545.451 455.168c7.211 13.999 21.564 23.407 38.114 23.407 23.602 0 42.735-19.133 42.735-42.735 0-6.156-1.302-12.009-3.645-17.296l0.108 0.273-144.418-306.381c-7.044-14.521-21.674-24.355-38.602-24.355-6.622 0-12.892 1.505-18.487 4.191l0.257-0.111c-14.606 6.854-24.539 21.438-24.539 38.341 0 6.729 1.574 13.091 4.374 18.737l-0.11-0.246zM649.523 422.571c7.588 6.249 17.406 10.038 28.109 10.038s20.521-3.789 28.185-10.099l-0.076 0.061 133.12-114.517c7.094-5.753 11.592-14.469 11.592-24.235s-4.497-18.482-11.534-24.189l-0.058-0.045-133.12-114.517c-7.631-6.133-17.437-9.843-28.109-9.843s-20.478 3.71-28.197 9.912l0.088-0.068c-7.094 5.753-11.592 14.469-11.592 24.235s4.497 18.482 11.534 24.189l0.058 0.045 104.823 90.419-104.892 90.283c-7.074 5.753-11.558 14.456-11.558 24.207 0 9.782 4.511 18.509 11.567 24.216l0.059 0.046zM567.159 795.955h23.893c23.564 0 42.667-19.103 42.667-42.667s-19.103-42.667-42.667-42.667v0h-23.893c-23.564 0-42.667 19.103-42.667 42.667s19.103 42.667 42.667 42.667v0zM763.802 795.955h23.893c23.564 0 42.667-19.103 42.667-42.667s-19.103-42.667-42.667-42.667v0h-23.893c-23.564 0-42.667 19.103-42.667 42.667s19.103 42.667 42.667 42.667v0z" />
<glyph unicode="&#xe930;" glyph-name="icon_dislike_30px" d="M25.805 318.601c21.246-29.113 53.898-48.807 91.254-52.489l0.531-0.042h252.416v-146.261c-0.034-1.301-0.053-2.833-0.053-4.369 0-99.101 80.338-179.439 179.439-179.439 0.127 0 0.253 0 0.38 0h-0.020c16.914 1.291 31.163 11.543 38.11 25.973l0.12 0.276 183.603 397.619h114.722c0.559-0.008 1.219-0.013 1.88-0.013 74.738 0 135.376 60.368 135.814 135.003v330.111c-0.438 74.677-61.076 135.044-135.814 135.044-0.661 0-1.321-0.005-1.979-0.014l0.1 0.001h-684.578c-1.040 0.032-2.262 0.050-3.489 0.050-32.776 0-62.545-12.879-84.52-33.853l0.048 0.045c-25.143-19.763-42.177-48.861-45.86-81.987l-0.049-0.547-64.853-423.868c-1.932-8.065-3.040-17.325-3.040-26.843 0-28.213 9.735-54.152 26.030-74.642l-0.188 0.245zM939.861 821.214v-330.069c0.003-0.222 0.005-0.485 0.005-0.747 0-28.597-23.183-51.78-51.78-51.78-0.626 0-1.25 0.011-1.87 0.033l0.090-0.003h-103.253v435.098h103.253c0.531 0.020 1.155 0.031 1.781 0.031 28.597 0 51.78-23.183 51.78-51.78 0-0.275-0.002-0.549-0.006-0.823l0.001 0.041zM83.115 408.61l64.853 423.868c4.15 25.666 26.148 45.029 52.668 45.029 0.312 0 0.623-0.003 0.934-0.008l-0.047 0.001h497.391v-468.89l-172.1-386.355c-44.028 11.482-76.070 50.7-76.492 97.471v187.611c-0.441 22.885-19.096 41.267-42.045 41.267-0.003 0-0.005 0-0.008 0h-279.176c-14.296 2.989-26.314 11.118-34.291 22.323l-0.116 0.171c-8.101 6.197-13.274 15.869-13.274 26.749 0 3.853 0.649 7.554 1.843 11l-0.071-0.236z" />
<glyph unicode="&#xe931;" glyph-name="icon_down" d="M442.982 169.574l-414.413 417.485c-17.69 17.88-28.618 42.48-28.618 69.632s10.929 51.752 28.627 69.641l-0.009-0.009c17.62 17.798 42.058 28.818 69.069 28.818s51.449-11.020 69.061-28.81l0.008-0.008 345.293-347.853 345.293 348.16c17.62 17.798 42.058 28.818 69.069 28.818s51.449-11.020 69.061-28.81l0.008-0.008c17.641-17.902 28.535-42.495 28.535-69.632s-10.894-51.73-28.547-69.644l0.012 0.012-413.901-417.792c-17.62-17.798-42.058-28.818-69.069-28.818s-51.449 11.020-69.061 28.81l-0.008 0.008z" />
<glyph unicode="&#xe932;" glyph-name="icon_download_30px" d="M981.333-64h-938.667c-23.564 0-42.667 19.103-42.667 42.667v0 853.333c0 23.564 19.103 42.667 42.667 42.667v0h298.667c23.564 0 42.667-19.103 42.667-42.667s-19.103-42.667-42.667-42.667v0h-256v-768h853.333v768h-256c-23.564 0-42.667 19.103-42.667 42.667s19.103 42.667 42.667 42.667v0h298.667c23.564 0 42.667-19.103 42.667-42.667v0-853.333c0-23.564-19.103-42.667-42.667-42.667v0zM755.507 606.174c7.724-7.722 12.501-18.39 12.501-30.174s-4.777-22.452-12.501-30.174l-213.333-213.333c-0.99-0.99-2.014-1.911-3.106-2.799-0.478-0.41-1.024-0.751-1.536-1.126s-1.195-0.922-1.843-1.331-1.229-0.751-1.877-1.126l-1.707-1.024-1.946-0.922-1.843-0.853-1.911-0.717-2.014-0.717-1.946-0.512-2.116-0.512c-0.751 0-1.502-0.239-2.253-0.341l-1.877-0.273c-1.264-0.132-2.731-0.207-4.215-0.207s-2.951 0.075-4.397 0.222l0.182-0.015-1.877 0.273-2.253 0.341-2.116 0.512-1.946 0.512-2.014 0.717-1.911 0.717-1.843 0.853-1.946 0.922-1.707 1.024c-0.614 0.375-1.263 0.717-1.877 1.126s-1.229 0.887-1.843 1.331-1.024 0.717-1.536 1.126q-1.604 1.331-3.106 2.799v0l-213.333 213.333c-7.722 7.722-12.498 18.39-12.498 30.174 0 23.567 19.105 42.672 42.672 42.672 11.784 0 22.452-4.776 30.174-12.498v0l140.493-140.493v451.652c0 23.564 19.103 42.667 42.667 42.667s42.667-19.103 42.667-42.667v0-451.652l140.493 140.493c7.723 7.734 18.398 12.518 30.191 12.518s22.468-4.784 30.19-12.517v0z" />
<glyph unicode="&#xe933;" glyph-name="icon_drink_30px" d="M977.067 244.634c-27.169-31.517-63.933-54.087-105.727-63.186l-1.281-0.234v-165.41h75.708c21.473-0.649 38.634-18.212 38.634-39.782s-17.161-39.134-38.574-39.781l-0.060-0.001h-111.957c-1.195 0-2.389 0-3.413 0s-2.253 0-3.413 0h-111.923c-21.473 0.649-38.634 18.212-38.634 39.782s17.161 39.134 38.574 39.781l0.060 0.001h75.81v165.41c-88.559 19.288-153.909 97.001-153.941 189.982v154.287c0 0 0 0 0 0 0 21.945 17.761 39.741 39.692 39.799h307.855c21.859-0.136 39.526-17.887 39.526-39.765 0-0.024 0-0.049 0-0.073v0.004-154.283c-0.015-48.461-17.778-92.769-47.144-126.782l0.21 0.249zM944.606 485.547h-228.454v-115.746c0-63.077 51.134-114.21 114.21-114.21s114.21 51.134 114.21 114.21v0 115.746zM424.482-64h-384.785c-21.937 0.058-39.697 17.855-39.697 39.799 0 0 0 0 0 0v0 525.653c0 0.076 0 0.166 0 0.255 0 26.868 10.892 51.191 28.501 68.796v0l81.647 81.92c3.268 3.247 5.291 7.744 5.291 12.713 0 0.018 0 0.037 0 0.055v-0.003 216.303c0 0 0 0.001 0 0.001 0 43.238 34.954 78.312 78.147 78.506h76.989c43.211-0.194 78.165-35.268 78.165-78.506 0 0 0 0 0-0.001v0-216.337c0-0.007 0-0.016 0-0.024 0-4.978 2.022-9.484 5.29-12.741v0l81.647-81.92c17.609-17.595 28.502-41.909 28.502-68.768 0-0.1 0-0.199 0-0.299v0.016-525.653c-0.019-21.93-17.772-39.707-39.691-39.765h-0.006zM269.346 880.401h-74.513v-65.399h74.513zM384.785 501.521c0 0.011 0 0.025 0 0.038 0 4.974-2.023 9.475-5.29 12.727l-0.001 0.001-81.681 81.92c-17.608 17.574-28.502 41.871-28.502 68.712 0 0.108 0 0.215 0.001 0.323v-0.017 70.178h-74.479v-70.246c0-0.077 0-0.167 0-0.258 0-26.862-10.907-51.177-28.534-68.758l-0.002-0.002-81.647-81.92c-3.268-3.252-5.291-7.754-5.291-12.727 0-0.013 0-0.027 0-0.040v0.002-13.312h305.425zM384.785 408.644h-305.391v-240.060h305.425zM384.785 88.986h-305.391v-73.318h305.425z" />
<glyph unicode="&#xe934;" glyph-name="icon_dryer_30px" d="M976.213 891.733l-146.773-61.44c-491.52 129.707-474.453 129.707-529.067 129.707-165.943-0.132-300.415-134.685-300.415-300.646 0-114.769 64.309-214.519 158.859-265.179l1.61-0.788 116.053-351.573v-3.413c19.479-50.335 67.497-85.383 123.702-85.383 73.068 0 132.301 59.233 132.301 132.301 0 0.305-0.001 0.611-0.003 0.916v-0.047c0 27.307-3.413 30.72-37.547 133.12h3.413c0.672-0.017 1.464-0.027 2.257-0.027 53.029 0 96.017 42.988 96.017 96.017 0 12.113-2.243 23.701-6.336 34.374l0.222-0.658-20.48 64.853 259.413 68.267 146.773-61.44c3.927-1.685 8.497-2.664 13.296-2.664 18.663 0 33.866 14.816 34.489 33.327l0.002 0.057v409.6c-0.996 18.522-16.258 33.164-34.939 33.164-4.625 0-9.041-0.898-13.082-2.528l0.235 0.084zM467.627 93.013c-0.116-37.656-30.611-68.151-68.256-68.267h-0.011c-27.449 0.238-50.962 16.845-61.271 40.525l-0.169 0.435-98.987 300.373c18.718-3.84 40.232-6.038 62.259-6.038 27.583 0 54.361 3.447 79.928 9.932l-2.24-0.482c92.16-279.893 88.747-262.827 88.747-276.48zM501.76 290.987h-27.307l-30.72 95.573 64.853 17.067 23.893-68.267c0.862-2.886 1.358-6.202 1.358-9.634 0-18.271-14.061-33.259-31.953-34.731l-0.125-0.008zM802.133 550.4c-481.28-126.293-460.8-126.293-501.76-126.293-128.315 0.555-232.119 104.702-232.119 233.094 0 0.853 0.005 1.705 0.014 2.555l-0.001-0.13c-0.005 0.57-0.008 1.245-0.008 1.919 0 127.133 103.062 230.195 230.195 230.195 0.675 0 1.349-0.003 2.022-0.009l-0.103 0.001c40.96 0 20.48 3.413 501.76-122.88zM955.733 509.44l-88.747 37.547v225.28l88.747 37.547zM300.373 826.88c-92.371 0-167.253-74.882-167.253-167.253s74.882-167.253 167.253-167.253c92.371 0 167.253 74.882 167.253 167.253v0c-0.155 92.309-74.944 167.098-167.238 167.253h-0.015zM300.373 560.64c-54.669 0-98.987 44.318-98.987 98.987s44.318 98.987 98.987 98.987c54.669 0 98.987-44.318 98.987-98.987v0c0-54.669-44.318-98.987-98.987-98.987v0zM976.213 890.573l-146.773-62.464c-491.52 131.891-474.453 131.891-529.067 131.891-166.004-0.449-300.404-135.125-300.404-301.192 0-1.501 0.011-2.999 0.033-4.494l-0.003 0.226c-0.002-0.362-0.002-0.791-0.002-1.22 0-115.763 64.153-216.542 158.846-268.726l1.583-0.8 116.053-357.547v-3.413c19.065-50.583 66.732-86.062 122.786-86.834l0.094-0.001c73.682 0.751 133.123 60.656 133.123 134.445 0 0.326-0.001 0.652-0.003 0.978v-0.050c0 27.785-3.413 31.232-37.547 135.373h3.413c0.327-0.004 0.714-0.006 1.102-0.006 53.802 0 97.417 43.615 97.417 97.417 0 12.443-2.333 24.342-6.585 35.282l0.227-0.664-20.48 65.946 259.413 69.427 146.773-62.498c3.915-1.671 8.469-2.642 13.25-2.642 18.842 0 34.161 15.087 34.536 33.839l0.001 0.035v416.461c-0.756 18.743-16.134 33.652-34.994 33.652-4.604 0-9.001-0.889-13.028-2.504l0.236 0.083zM467.627 78.199c0.001-0.113 0.001-0.246 0.001-0.38 0-37.861-30.47-68.604-68.226-69.047h-0.042c-27.595 0.361-51.158 17.248-61.274 41.2l-0.166 0.443-98.987 305.596c18.757-3.921 40.312-6.165 62.39-6.165 27.545 0 54.274 3.494 79.767 10.062l-2.211-0.483c92.16-284.638 88.747-267.298 88.747-281.156zM501.76 279.586h-27.307l-30.72 97.246 64.853 17.34 23.893-69.427c0.893-2.959 1.407-6.359 1.407-9.879 0-18.398-14.036-33.517-31.984-35.234l-0.143-0.011zM802.133 543.573c-481.28-128.546-460.8-128.546-501.76-128.546-128.571 1.691-232.148 106.312-232.148 235.125 0 1.543 0.015 3.082 0.044 4.618l-0.003-0.23c-0.021 1.168-0.033 2.545-0.033 3.925 0 128.189 103.918 232.107 232.107 232.107 0.012 0 0.023 0 0.035 0h-0.002c40.96 0 20.48 3.413 501.76-124.962zM955.733 501.931l-88.747 38.195v228.966l88.747 38.161z" />
<glyph unicode="&#xe935;" glyph-name="icon_dvd_30px" d="M821.248 39.936l3.413 2.594 4.779 3.721q3.959 3.106 7.851 6.315l0.478 0.375q4.574 3.755 9.045 7.646l0.922 0.819q4.198 3.618 8.294 7.373l0.512 0.478q9.011 8.192 17.681 16.828c2.219 2.219 4.369 4.506 6.554 6.827l2.219 2.287 4.471 4.642q3.14 3.413 6.212 6.827l1.536 1.741c79.821 89.835 128.58 208.821 128.58 339.196 0 282.6-229.093 511.693-511.693 511.693s-511.693-229.093-511.693-511.693c0-282.6 229.093-511.693 511.693-511.693 113.419 0 218.219 36.901 303.049 99.352l-1.413-0.993 1.468 1.058zM828.791 162.167l-1.98-2.185q-13.278-14.507-27.853-27.785v0c-1.911-1.741-3.823-3.413-5.734-5.12l-2.594-2.287-4.437-3.755-4.233-3.413-3.413-2.731-5.666-4.471-2.287-1.741q-3.584-2.731-7.236-5.393l-0.99-0.717q-8.841-6.417-17.988-12.356l-127.556 223.164 4.369 3.482c1.741 1.434 3.413 2.935 5.154 4.471l0.99 0.887c1.877 1.741 3.755 3.413 5.564 5.291q5.222 5.222 9.933 10.854l210.5-145.954q-11.093-14.916-23.074-28.433zM543.095 368.674c-0.887-0.341-1.775-0.751-2.628-1.126-8.473-3.095-18.256-4.885-28.456-4.885-47.128 0-85.333 38.205-85.333 85.333 0 10.883 2.037 21.291 5.752 30.862l-0.199-0.582c0.375 0.785 0.751 1.604 1.126 2.423 9.003 21.504 26.016 38.151 47.214 46.462l0.573 0.198c0.922 0.375 1.843 0.785 2.731 1.195 7.82 2.609 16.824 4.115 26.179 4.115 47.128 0 85.333-38.205 85.333-85.333 0-35.186-21.296-65.398-51.701-78.45l-0.555-0.212zM210.33 749.636c20.658 20.668 43.423 39.225 67.946 55.323l1.617 0.997 127.522-223.13c-9.668-7.546-18.189-15.743-25.803-24.735l-0.207-0.251-210.739 145.783c12.641 16.988 25.645 32.005 39.66 46.009l0.003 0.003zM938.667 448c0-0.133 0-0.289 0-0.446 0-66.14-15.11-128.751-42.066-184.57l1.106 2.539-218.044 150.972c1.87 9.483 2.94 20.387 2.94 31.541 0 94.257-76.41 170.667-170.667 170.667-9.073 0-17.981-0.708-26.67-2.072l0.964 0.125-130.492 228.386c46.24 18.689 99.865 29.533 156.024 29.533 235.692 0 426.774-191.001 426.906-426.662v-0.012zM85.333 448c0 0.173 0 0.378 0 0.582 0 66.14 15.11 128.751 42.066 184.57l-1.106-2.539 218.010-150.938c-1.889-9.532-2.97-20.491-2.97-31.703 0-94.257 76.41-170.667 170.667-170.667 9.132 0 18.097 0.717 26.841 2.099l-0.967-0.126 130.526-228.386c-46.269-18.713-99.929-29.571-156.126-29.571-235.7 0-426.791 190.998-426.94 426.664v0.014z" />
<glyph unicode="&#xe936;" glyph-name="icon_edit_30px" d="M955.324 891.324c-42.432 42.476-101.074 68.751-165.854 68.751s-123.422-26.275-165.852-68.749l-545.555-545.623c-5.824-5.811-9.973-13.297-11.662-21.675l-0.046-0.273-65.604-336.964c-0.395-2.23-0.621-4.797-0.621-7.417 0-11.961 4.711-22.822 12.378-30.829l-0.015 0.016c7.596-7.752 18.174-12.558 29.874-12.558 2.97 0 5.867 0.31 8.662 0.898l-0.273-0.048 337.203 65.604c8.664 1.685 16.163 5.844 21.943 11.703l545.422 545.49c42.424 42.449 68.663 101.079 68.663 165.837s-26.238 123.388-68.664 165.838l0.001-0.001zM358.81 83.763l-262.11-51.2 50.995 261.939 432.879 432.947 211.115-211.081zM895.147 619.827l-42.974-43.042-211.183 211.081 43.042 43.042c26.608 27.882 64.058 45.217 105.557 45.217s78.949-17.336 105.503-45.16l0.054-0.057c26.934-27.045 43.586-64.348 43.586-105.54s-16.652-78.495-43.591-105.545l0.005 0.005z" />
<glyph unicode="&#xe937;" glyph-name="icon_equal_30px" d="M0 448c0 282.77 229.23 512 512 512v0c282.77 0 512-229.23 512-512v0c0-282.77-229.23-512-512-512v0c-282.77 0-512 229.23-512 512v0zM85.333 448c0-235.641 191.025-426.667 426.667-426.667v0c235.641 0 426.667 191.025 426.667 426.667v0c0 235.641-191.025 426.667-426.667 426.667v0c-235.641 0-426.667-191.025-426.667-426.667v0zM327.68 304.64c-22.622 0-40.96 18.338-40.96 40.96v0c0 22.622 18.338 40.96 40.96 40.96v0h368.64c22.622 0 40.96-18.338 40.96-40.96v0c0-22.622-18.338-40.96-40.96-40.96v0zM327.68 488.96c-22.622 0-40.96 18.338-40.96 40.96v0c0 22.622 18.338 40.96 40.96 40.96v0h368.64c22.622 0 40.96-18.338 40.96-40.96v0c0-22.622-18.338-40.96-40.96-40.96v0z" />
<glyph unicode="&#xe938;" glyph-name="icon_file_30px" d="M1006.387 172.715l-193.536-197.632s-32.939-43.657-63.625-38.639h-707.482c-23.098 0.191-41.749 18.96-41.749 42.085 0 0.192 0.001 0.385 0.004 0.577v-0.029 938.394c-0.002 0.163-0.004 0.355-0.004 0.547 0 23.125 18.651 41.894 41.73 42.085h940.528c23.098-0.191 41.749-18.96 41.749-42.085 0-0.192-0.001-0.385-0.004-0.577v0.029-709.222c-0.649-14.302-7.328-26.924-17.536-35.47l-0.077-0.063zM799.573 82.057l81.92 83.558h-81.92zM940.544 874.769h-857.088v-852.855h632.661v186.539c-0.002 0.163-0.004 0.356-0.004 0.548 0 23.089 18.593 41.835 41.623 42.084h182.706zM355.294 323.755c-23.564 0-42.667 19.103-42.667 42.667s19.103 42.667 42.667 42.667v0h313.207c23.564 0 42.667-19.103 42.667-42.667s-19.103-42.667-42.667-42.667v0zM668.501 500.702h-313.207c-23.564 0-42.667 19.103-42.667 42.667s19.103 42.667 42.667 42.667v0h313.207c23.564 0 42.667-19.103 42.667-42.667s-19.103-42.667-42.667-42.667v0z" />
<glyph unicode="&#xe939;" glyph-name="icon_filter_30px" d="M688.026 64h-645.359c-23.564 0-42.667 19.103-42.667 42.667s19.103 42.667 42.667 42.667v0h645.393c19.625 74.196 86.153 128 165.247 128 94.257 0 170.667-76.41 170.667-170.667s-76.41-170.667-170.667-170.667c-79.094 0-145.622 53.804-164.979 126.809l-0.268 1.191zM938.667 106.667c0 47.128-38.205 85.333-85.333 85.333s-85.333-38.205-85.333-85.333c0-47.128 38.205-85.333 85.333-85.333v0c47.128 0 85.333 38.205 85.333 85.333v0zM346.726 405.333h-304.060c-23.564 0-42.667 19.103-42.667 42.667s19.103 42.667 42.667 42.667v0h304.060c19.566 74.281 86.135 128.168 165.291 128.168s145.725-53.888 165.024-126.978l0.267-1.19h304.026c23.564 0 42.667-19.103 42.667-42.667s-19.103-42.667-42.667-42.667v0h-304.060c-19.566-74.281-86.135-128.168-165.291-128.168s-145.725 53.888-165.024 126.978l-0.267 1.19zM597.333 448c0 47.128-38.205 85.333-85.333 85.333s-85.333-38.205-85.333-85.333c0-47.128 38.205-85.333 85.333-85.333v0c47.128 0 85.333 38.205 85.333 85.333v0zM0 789.333c0 0.070 0 0.153 0 0.235 0 94.257 76.41 170.667 170.667 170.667 79.18 0 145.766-53.921 165.041-127.046l0.267-1.19h645.359c23.564 0 42.667-19.103 42.667-42.667s-19.103-42.667-42.667-42.667v0h-645.359c-19.542-74.315-86.128-128.235-165.308-128.235-94.257 0-170.667 76.41-170.667 170.667 0 0.083 0 0.165 0 0.248v-0.013zM256 789.333c0 47.128-38.205 85.333-85.333 85.333s-85.333-38.205-85.333-85.333c0-47.128 38.205-85.333 85.333-85.333v0c47.128 0 85.333 38.205 85.333 85.333v0z" />
<glyph unicode="&#xe93a;" glyph-name="icon_folder_30px" d="M1024 797.935v-785.067c-0.019-23.549-19.114-42.633-42.667-42.633h-938.667c-23.552 0-42.647 19.083-42.667 42.631v870.402c0 0.010 0 0.022 0 0.034 0 23.564 19.103 42.667 42.667 42.667 0 0 0 0 0 0h298.667c16.608-0.001 31-9.491 38.049-23.344l0.112-0.242 30.72-61.747h571.119c23.564 0 42.667-19.103 42.667-42.667 0-0.012 0-0.024 0-0.036v0.002zM431.172 608.188l-116.224 232.448h-229.615v-785.067h853.333v529.067h-469.333c-0.005 0-0.010 0-0.016 0-16.596 0-30.978 9.475-38.034 23.31l-0.112 0.242zM938.667 755.302h-485.615l42.667-85.333h442.948zM512 490.701h298.667c0 0 0 0 0 0 23.54 0 42.628-19.064 42.667-42.595v-170.671c0-23.564-19.103-42.667-42.667-42.667v0h-298.667c-23.564 0-42.667 19.103-42.667 42.667v0 170.667c0.039 23.535 19.126 42.598 42.667 42.598 0 0 0 0 0 0v0zM554.667 320.034h213.333v85.333h-213.333z" />
<glyph unicode="&#xe93b;" glyph-name="icon_folder_open_30px" d="M562.517 445.201v-41.574c0 0 0 0 0 0 0-1.421-1.142-2.575-2.558-2.594h-54.923c-1.403 0.038-2.526 1.185-2.526 2.593 0 0 0 0.001 0 0.001v0 57.344c0 0 0 0.001 0 0.001 0 1.409 1.123 2.555 2.522 2.593h39.462c0.045 0.003 0.097 0.005 0.149 0.005 0.609 0 1.166-0.221 1.595-0.588l-0.003 0.003h0.171l15.36-15.633v-0.171c0.467-0.464 0.756-1.106 0.756-1.817 0-0.057-0.002-0.114-0.006-0.171v0.008zM547.157 454.69v-6.827h6.554zM557.397 442.743h-12.8c-1.403 0.038-2.526 1.185-2.526 2.593 0 0 0 0.001 0 0.001v0 13.039h-34.475v-52.156h49.835zM521.284 447.932h5.12c1.418-0.019 2.56-1.173 2.56-2.594 0 0 0 0 0 0v0c0-0.010 0-0.022 0-0.034 0-1.421-1.142-2.575-2.558-2.594h-5.122c-1.418 0.019-2.56 1.173-2.56 2.594 0 0.012 0 0.024 0 0.036v-0.002c0 0 0 0 0 0 0 1.421 1.142 2.575 2.558 2.594h0.002zM521.284 434.893h22.46c1.418-0.019 2.56-1.173 2.56-2.594 0 0 0 0 0 0v0c0 0 0 0 0 0 0-1.421-1.142-2.575-2.558-2.594h-22.462c-1.418 0.019-2.56 1.173-2.56 2.594 0 0 0 0 0 0v0c0 0 0 0 0 0 0 1.421 1.142 2.575 2.558 2.594h0.002zM521.284 421.854h22.46c1.418-0.019 2.56-1.173 2.56-2.594 0 0 0 0 0 0v0c0 0 0 0 0 0 0-1.421-1.142-2.575-2.558-2.594h-22.462c-1.418 0.019-2.56 1.173-2.56 2.594 0 0 0 0 0 0v0c0 0 0 0 0 0 0 1.421 1.142 2.575 2.558 2.594h0.002zM981.333 603.819h-42.667v222.618c0.004 0.226 0.007 0.494 0.007 0.761 0 23.758-18.993 43.080-42.624 43.611l-0.049 0.001h-443.119l-30.72 63.795c-6.891 14.404-21.273 24.217-37.966 24.405h-0.025l-256 0.99c-23.755-0.437-42.844-19.797-42.844-43.615 0-0.266 0.002-0.532 0.007-0.798l-0.001 0.040v-311.637h-42.633c-23.756-0.673-42.757-20.091-42.757-43.947 0-2.562 0.219-5.072 0.64-7.514l-0.037 0.261 85.333-578.799c2.798-21.147 20.524-37.353 42.114-37.751l0.041-0.001h768c21.63 0.398 39.356 16.605 42.131 37.531l0.024 0.22 85.333 578.799c0.365 2.129 0.574 4.581 0.574 7.082 0 23.858-19.005 43.278-42.701 43.946l-0.062 0.001zM170.701 870.81l187.051-0.717 30.72-63.727c6.897-14.448 21.328-24.286 38.073-24.439h426.687v-178.108h-682.667zM859.409 25.054h-694.784l-72.192 489.745h839.168z" />
<glyph unicode="&#xe93c;" glyph-name="icon_fuel_30px" d="M350.549 581.871h66.56c22.867 0 41.404 18.537 41.404 41.404s-18.537 41.404-41.404 41.404h-66.56c-22.867 0-41.404-18.537-41.404-41.404s18.537-41.404 41.404-41.404v0zM734.242 748.373h139.093c0.041 0 0.089 0 0.137 0 22.81 0 41.301 18.491 41.301 41.301 0 0.024 0 0.048 0 0.072v-0.004 129.092c-0.136 22.764-18.62 41.165-41.403 41.165-0.012 0-0.024 0-0.037 0h-187.254c-71.823-0.079-137.583-25.974-188.516-68.902l0.441 0.362-44.749-37.547c-12.264 4.285-26.401 6.761-41.117 6.761-8.602 0-17.006-0.846-25.134-2.459l0.817 0.135c-100.865-18.416-189.253-62.507-260.928-125.227l0.627 0.538c-78.454-71.122-127.524-173.424-127.524-287.188 0-0.364 0.001-0.727 0.002-1.091v0.057-468.036c0.039-22.851 18.553-41.365 41.4-41.404h219.652c0.030 0 0.066 0 0.103 0 22.81 0 41.301 18.491 41.301 41.301 0 0.036 0 0.072 0 0.108v-0.006 120.388h133.53c0.569-0.006 1.242-0.009 1.915-0.009 48.169 0 92.267 17.428 126.333 46.323l-0.283-0.234c22.555 22.408 36.516 53.443 36.516 87.739 0 0.918-0.010 1.835-0.030 2.748l0.002-0.136v404.924c0.001 0.175 0.001 0.383 0.001 0.59 0 18.213-2.77 35.778-7.912 52.299l0.334-1.245 47.172 29.833c26.617 17.385 59.202 27.732 94.203 27.75h0.005zM219.682 278.528v-259.959h-136.875v426.871c-0.001 0.315-0.002 0.689-0.002 1.062 0 89.289 38.435 169.601 99.663 225.294l0.247 0.222c60.329 52.103 135.081 89.128 217.472 104.384l2.859 0.44c2.645 0.504 5.687 0.793 8.796 0.793 14.64 0 27.786-6.396 36.796-16.546l0.044-0.051c18.873-20.852 36.594-43.66 52.54-67.746l1.322-2.125c9.478-14.732 15.113-32.716 15.121-52.017v-140.29h-77.346c-121.716-0.077-220.385-98.639-220.638-220.306v-0.024zM302.49 278.528c0.007 14.133 2.127 27.769 6.062 40.611l-0.259-0.982c8.731-20.099 21.851-36.866 38.225-49.66l0.277-0.209c17.457-13.195 39.526-21.134 63.45-21.134 0.385 0 0.77 0.002 1.155 0.006h-0.059c10.375 0.080 20.419 1.319 30.064 3.595l-0.914-0.182c10.937 2.552 20.047 9.046 25.947 17.868l0.097 0.154c4.122 6.25 6.575 13.917 6.575 22.156 0 3.193-0.369 6.301-1.065 9.282l0.054-0.275c-4.314 18.655-20.786 32.35-40.456 32.35-3.178 0-6.273-0.358-9.247-1.035l0.278 0.053c-2.993-1.173-6.46-1.853-10.085-1.853-5.858 0-11.302 1.776-15.821 4.819l0.101-0.064c-13.79 15.415-22.505 35.626-23.376 57.851l-0.005 0.176c-0.195 2.364-0.509 4.499-0.947 6.588l0.060-0.342c19.41 11.206 42.693 17.818 67.52 17.818 0.13 0 0.261 0 0.391-0.001h77.224v-181.828c0.059-0.821 0.092-1.778 0.092-2.743 0-11.144-4.45-21.248-11.671-28.633l0.007 0.008c-19.071-14.184-43.086-22.708-69.091-22.708-0.514 0-1.028 0.003-1.54 0.010l0.078-0.001h-133.12v98.304zM831.932 877.431v-46.524h-97.69c-51.444-0.038-99.376-15.044-139.684-40.898l1.035 0.621-42.633-26.931c-9.353 12.698-20.036 26.044-31.369 39.39l29.594 24.917c36.081 30.588 83.168 49.186 134.599 49.186 0.104 0 0.208 0 0.312 0h145.767zM1006.387 496.060c-0.255 0.694-0.639 1.286-1.127 1.775v0l-107.281 185.617c-7.283 12.465-20.599 20.707-35.84 20.707s-28.557-8.242-35.734-20.511l-0.106-0.196-107.281-185.617c-0.357-0.679-0.731-1.259-1.148-1.805l0.022 0.030c-10.91-21.174-17.306-46.21-17.306-72.738 0-89.204 72.314-161.519 161.519-161.519s161.519 72.314 161.519 161.519c0 26.529-6.396 51.564-17.729 73.647l0.424-0.909zM929.382 381.884v0c-14.061-22.902-38.969-37.946-67.39-37.946-43.528 0-78.814 35.286-78.814 78.814 0 12.755 3.030 24.803 8.41 35.462l-0.207-0.451 70.758 122.402 70.758-122.402c5.124-10.118 8.125-22.059 8.125-34.701 0-15.192-4.334-29.371-11.832-41.369l0.192 0.329z" />
<glyph unicode="&#xe93d;" glyph-name="icon_funnel_30px" d="M1024.478 789.185c0 108.97-226.307 170.746-512.239 170.746s-512.239-61.639-512.239-170.746c1.172-28.041 14.761-52.687 35.377-68.725l0.206-0.154 348.596-457.361v-284.259c0-23.575 19.111-42.687 42.687-42.687 9.658 0 18.567 3.207 25.719 8.615l-0.107-0.078 170.746 127.991c10.414 7.864 17.075 20.22 17.075 34.132 0 0.006 0 0.012 0 0.018v-0.001 156.267l348.596 457.361c20.826 16.19 34.417 40.837 35.577 68.695l0.006 0.184zM512.239 874.559c232.727 0 426.866-52.931 426.866-85.373-0.009-0.793-0.121-1.556-0.322-2.282l0.015 0.062c-3.447-1.694-6.417-3.604-9.14-5.808l0.090 0.071c-39.917-25.42-87.005-43.55-137.523-51.245l-2.011-0.252c-79.978-15.931-172.102-25.259-266.33-25.679l-0.342-0.001h-22.607c-94.57 0.421-186.694 9.749-275.916 27.185l9.244-1.505c-52.527 7.997-99.599 26.171-140.968 52.507l1.468-0.874c-2.632 2.135-5.602 4.045-8.771 5.613l-0.278 0.124c-0.186 0.616-0.308 1.328-0.341 2.064l-0.001 0.019c0 32.544 194.139 85.373 426.866 85.373zM554.926 127.953l-85.373-63.996v170.746h85.373zM576.474 319.94h-128.47l-251.612 330.189c88.335-19.996 189.782-31.455 293.905-31.455 3.584 0 7.164 0.014 10.742 0.041l-0.548-0.003h23.461c3.033-0.024 6.619-0.038 10.208-0.038 104.118 0 205.56 11.458 303.133 33.183l-9.242-1.728z" />
</font>
</defs>
</svg>
